<svg width="22" height="22" viewBox="0 0 22 22" fill="none" xmlns="http://www.w3.org/2000/svg">
<g opacity="0.4">
<path fill-rule="evenodd" clip-rule="evenodd" d="M1.00398 8.54174C1.00398 1.83389 2.01505 1 8 1C13.9849 1 14.996 1.83389 14.996 8.54174C14.996 9.19938 14.9972 9.81438 14.9982 10.3892C15.0092 16.3776 15.0122 18 13.6476 18C12.9257 18 11.9829 17.2309 11.0082 16.4358C9.96493 15.5847 8.88505 14.7038 8 14.7038C7.11495 14.7038 6.03507 15.5847 4.99183 16.4358C4.01708 17.2309 3.07433 18 2.35239 18C0.98783 18 0.990807 16.3776 1.00179 10.3892C1.00285 9.81438 1.00398 9.19938 1.00398 8.54174ZM4.78796 5.26074C3.82147 5.26074 3.03796 6.04424 3.03796 7.01074C3.03796 7.97724 3.82147 8.76074 4.78796 8.76074H11.2114C12.1779 8.76074 12.9614 7.97724 12.9614 7.01074C12.9614 6.04424 12.1779 5.26074 11.2114 5.26074H4.78796Z" fill="white"/>
<path d="M14.9982 10.3892L15.7482 10.3878L14.9982 10.3892ZM11.0082 16.4358L10.5341 17.0169V17.0169L11.0082 16.4358ZM4.99183 16.4358L5.46592 17.0169L4.99183 16.4358ZM1.00179 10.3892L1.75179 10.3905L1.00179 10.3892ZM8 0.25C6.49942 0.25 5.2513 0.301044 4.23813 0.499028C3.21406 0.699145 2.36086 1.0621 1.71551 1.73716C1.07475 2.40741 0.720061 3.30086 0.5179 4.3975C0.316518 5.48991 0.253976 6.85698 0.253976 8.54174H1.75398C1.75398 6.87257 1.81782 5.61996 1.99304 4.66944C2.16749 3.72315 2.43963 3.1504 2.79976 2.7737C3.15529 2.4018 3.67705 2.13704 4.52581 1.97118C5.38549 1.80319 6.5081 1.75 8 1.75V0.25ZM15.746 8.54174C15.746 6.85698 15.6835 5.48991 15.4821 4.3975C15.2799 3.30086 14.9252 2.40741 14.2845 1.73716C13.6391 1.0621 12.7859 0.699145 11.7619 0.499028C10.7487 0.301044 9.50058 0.25 8 0.25V1.75C9.4919 1.75 10.6145 1.80319 11.4742 1.97118C12.323 2.13704 12.8447 2.4018 13.2002 2.7737C13.5604 3.1504 13.8325 3.72315 14.007 4.66944C14.1822 5.61996 14.246 6.87257 14.246 8.54174H15.746ZM15.7482 10.3878C15.7472 9.81293 15.746 9.19859 15.746 8.54174H14.246C14.246 9.20017 14.2472 9.81582 14.2482 10.3905L15.7482 10.3878ZM13.6476 18.75C14.1631 18.75 14.6623 18.5825 15.0274 18.1139C15.3437 17.7082 15.4924 17.1547 15.5809 16.5486C15.7595 15.3248 15.7536 13.3483 15.7482 10.3878L14.2482 10.3905C14.2538 13.4185 14.2549 15.2474 14.0966 16.3319C14.0166 16.8799 13.9109 17.1064 13.8443 17.1919C13.8266 17.2147 13.8144 17.25 13.6476 17.25V18.75ZM10.5341 17.0169C11.0128 17.4074 11.5252 17.8265 12.0133 18.1445C12.4784 18.4474 13.0532 18.75 13.6476 18.75V17.25C13.5201 17.25 13.2625 17.168 12.832 16.8876C12.4247 16.6223 11.9783 16.2593 11.4823 15.8546L10.5341 17.0169ZM8 15.4538C8.21811 15.4538 8.55609 15.5727 9.04085 15.8826C9.50822 16.1813 10.0039 16.5844 10.5341 17.0169L11.4823 15.8546C10.9692 15.436 10.4033 14.9732 9.84867 14.6187C9.31143 14.2753 8.66693 13.9538 8 13.9538V15.4538ZM5.46592 17.0169C5.99608 16.5844 6.49178 16.1813 6.95915 15.8826C7.44391 15.5727 7.78189 15.4538 8 15.4538V13.9538C7.33307 13.9538 6.68857 14.2753 6.15133 14.6187C5.59668 14.9732 5.03083 15.436 4.51775 15.8546L5.46592 17.0169ZM2.35239 18.75C2.94679 18.75 3.5216 18.4474 3.98665 18.1445C4.47484 17.8265 4.98725 17.4074 5.46592 17.0169L4.51775 15.8546C4.02167 16.2593 3.57533 16.6223 3.16797 16.8876C2.73747 17.168 2.47994 17.25 2.35239 17.25V18.75ZM0.251795 10.3878C0.246363 13.3483 0.240509 15.3248 0.419125 16.5486C0.507596 17.1547 0.656344 17.7082 0.972556 18.1139C1.33772 18.5825 1.83688 18.75 2.35239 18.75V17.25C2.18562 17.25 2.17344 17.2147 2.15573 17.1919C2.08906 17.1064 1.98338 16.8799 1.9034 16.3319C1.74511 15.2474 1.74624 13.4185 1.75179 10.3905L0.251795 10.3878ZM0.253976 8.54174C0.253976 9.1986 0.252849 9.81294 0.251795 10.3878L1.75179 10.3905C1.75285 9.81582 1.75398 9.20017 1.75398 8.54174H0.253976ZM3.78796 7.01074C3.78796 6.45846 4.23568 6.01074 4.78796 6.01074V4.51074C3.40725 4.51074 2.28796 5.63003 2.28796 7.01074H3.78796ZM4.78796 8.01074C4.23568 8.01074 3.78796 7.56303 3.78796 7.01074H2.28796C2.28796 8.39145 3.40725 9.51074 4.78796 9.51074V8.01074ZM11.2114 8.01074H4.78796V9.51074H11.2114V8.01074ZM12.2114 7.01074C12.2114 7.56303 11.7637 8.01074 11.2114 8.01074V9.51074C12.5922 9.51074 13.7114 8.39145 13.7114 7.01074H12.2114ZM11.2114 6.01074C11.7637 6.01074 12.2114 6.45846 12.2114 7.01074H13.7114C13.7114 5.63003 12.5922 4.51074 11.2114 4.51074V6.01074ZM4.78796 6.01074H11.2114V4.51074H4.78796V6.01074Z" fill="white"/>
</g>
</svg>
