<svg xmlns="http://www.w3.org/2000/svg" width="16" height="16" viewBox="0 0 16 16" fill="none">
  <g clip-path="url(#clip0_133_5439)">
    <path d="M5.33301 6.66665C5.33301 6.31302 5.47348 5.97389 5.72353 5.72384C5.97358 5.47379 6.31272 5.33331 6.66634 5.33331H11.9997C12.3533 5.33331 12.6924 5.47379 12.9425 5.72384C13.1925 5.97389 13.333 6.31302 13.333 6.66665V12C13.333 12.3536 13.1925 12.6927 12.9425 12.9428C12.6924 13.1928 12.3533 13.3333 11.9997 13.3333H6.66634C6.31272 13.3333 5.97358 13.1928 5.72353 12.9428C5.47348 12.6927 5.33301 12.3536 5.33301 12V6.66665Z" stroke="#43DD4E" strokeWidth="1.5" strokeLineCap="round" strokeLineJoin="round"/>
    <path d="M10.667 5.33335V4.00002C10.667 3.6464 10.5265 3.30726 10.2765 3.05721C10.0264 2.80716 9.68728 2.66669 9.33366 2.66669H4.00033C3.6467 2.66669 3.30756 2.80716 3.05752 3.05721C2.80747 3.30726 2.66699 3.6464 2.66699 4.00002V9.33335C2.66699 9.68698 2.80747 10.0261 3.05752 10.2762C3.30756 10.5262 3.6467 10.6667 4.00033 10.6667H5.33366" stroke="#43DD4E" strokeWidth="1.5" strokeLinecap="round" strokeLineCap="round"/>
  </g>
  <defs>
    <clipPath id="clip0_133_5439">
      <rect width="16" height="16" fill="white"/>
    </clipPath>
  </defs>
</svg>