<svg xmlns="http://www.w3.org/2000/svg" width="22" height="22" viewBox="0 0 22 22" fill="none">
  <g clip-path="url(#clip0_255_652)">
    <path d="M10.9997 1.8335L11.2967 1.83441L11.5882 1.83808L12.1528 1.85366L12.4269 1.86558L12.9577 1.89675L13.4646 1.93891C17.8508 2.36425 19.6356 4.149 20.0609 8.53525L20.1031 9.04216L20.1343 9.57291C20.1388 9.66275 20.1434 9.75441 20.1462 9.847L20.1618 10.4117L20.1663 11.0002L20.1618 11.5887L20.1462 12.1533L20.1343 12.4274L20.1031 12.9582L20.0609 13.4651C19.6356 17.8513 17.8508 19.6361 13.4646 20.0614L12.9577 20.1036L12.4269 20.1347C12.3371 20.1393 12.2454 20.1439 12.1528 20.1467L11.5882 20.1622L10.9997 20.1668L10.4112 20.1622L9.84651 20.1467L9.57242 20.1347L9.04168 20.1036L8.53476 20.0614C4.14851 19.6361 2.36376 17.8513 1.93842 13.4651L1.89626 12.9582L1.86509 12.4274C1.86063 12.3361 1.85666 12.2447 1.85317 12.1533L1.83759 11.5887C1.83484 11.3962 1.83301 11.2 1.83301 11.0002L1.83392 10.7032L1.83759 10.4117L1.85317 9.847L1.86509 9.57291L1.89626 9.04216L1.93842 8.53525C2.36376 4.149 4.14851 2.36425 8.53476 1.93891L9.04168 1.89675L9.57242 1.86558C9.66226 1.861 9.75392 1.85641 9.84651 1.85366L10.4112 1.83808C10.6037 1.83533 10.7998 1.8335 10.9997 1.8335ZM10.9997 7.3335C10.7566 7.3335 10.5234 7.43007 10.3515 7.60198C10.1796 7.77389 10.083 8.00705 10.083 8.25016V10.0835H8.24967L8.14243 10.0899C7.91042 10.1175 7.69771 10.2327 7.54775 10.4118C7.39779 10.591 7.32191 10.8206 7.3356 11.0539C7.34929 11.2871 7.45153 11.5063 7.62142 11.6667C7.79131 11.8271 8.01604 11.9166 8.24967 11.9168H10.083V13.7502L10.0894 13.8574C10.117 14.0894 10.2322 14.3021 10.4113 14.4521C10.5905 14.602 10.8202 14.6779 11.0534 14.6642C11.2866 14.6505 11.5058 14.5483 11.6662 14.3784C11.8266 14.2085 11.9161 13.9838 11.9163 13.7502V11.9168H13.7497L13.8569 11.9104C14.0889 11.8828 14.3016 11.7677 14.4516 11.5885C14.6016 11.4093 14.6774 11.1797 14.6637 10.9464C14.6501 10.7132 14.5478 10.494 14.3779 10.3336C14.208 10.1732 13.9833 10.0838 13.7497 10.0835H11.9163V8.25016L11.9099 8.14291C11.8837 7.91993 11.7765 7.71435 11.6087 7.56515C11.4409 7.41596 11.2242 7.33353 10.9997 7.3335Z" fill="white"/>
  </g>
  <defs>
    <clipPath id="clip0_255_652">
      <rect width="22" height="22" fill="white"/>
    </clipPath>
  </defs>
</svg>