<svg xmlns="http://www.w3.org/2000/svg" width="24" height="16" viewBox="0 0 24 16" fill="none">
  <path d="M1 7.5C0.723858 7.5 0.5 7.72386 0.5 8C0.5 8.27614 0.723858 8.5 1 8.5L1 7.5ZM23.3536 8.35355C23.5488 8.15829 23.5488 7.84171 23.3536 7.64644L20.1716 4.46446C19.9763 4.2692 19.6597 4.2692 19.4645 4.46446C19.2692 4.65973 19.2692 4.97631 19.4645 5.17157L22.2929 8L19.4645 10.8284C19.2692 11.0237 19.2692 11.3403 19.4645 11.5355C19.6597 11.7308 19.9763 11.7308 20.1716 11.5355L23.3536 8.35355ZM1 8.5L1.91667 8.5L1.91667 7.5L1 7.5L1 8.5ZM3.75 8.5L5.58333 8.5L5.58333 7.5L3.75 7.5L3.75 8.5ZM7.41667 8.5L9.25 8.5L9.25 7.5L7.41667 7.5L7.41667 8.5ZM11.0833 8.5L12.9167 8.5L12.9167 7.5L11.0833 7.5L11.0833 8.5ZM14.75 8.5L16.5833 8.5L16.5833 7.5L14.75 7.5L14.75 8.5ZM18.4167 8.5L20.25 8.5L20.25 7.5L18.4167 7.5L18.4167 8.5ZM22.0833 8.5L23 8.5L23 7.5L22.0833 7.5L22.0833 8.5ZM1 7C0.447715 7 -4.82823e-08 7.44772 0 8C4.82823e-08 8.55228 0.447715 9 1 9L1 7ZM23.7071 8.7071C24.0976 8.31658 24.0976 7.68342 23.7071 7.29289L17.3431 0.928931C16.9526 0.538406 16.3195 0.538406 15.9289 0.928931C15.5384 1.31946 15.5384 1.95262 15.9289 2.34314L21.5858 8L15.9289 13.6569C15.5384 14.0474 15.5384 14.6805 15.9289 15.0711C16.3195 15.4616 16.9526 15.4616 17.3431 15.0711L23.7071 8.7071ZM1 9L1.91667 9L1.91667 7L1 7L1 9ZM3.75 9L5.58333 9L5.58333 7L3.75 7L3.75 9ZM7.41667 9L9.25 9L9.25 7L7.41667 7L7.41667 9ZM11.0833 9L12.9167 9L12.9167 7L11.0833 7L11.0833 9ZM14.75 9L16.5833 9L16.5833 7L14.75 7L14.75 9ZM18.4167 9L20.25 9L20.25 7L18.4167 7L18.4167 9ZM22.0833 9L23 9L23 7L22.0833 7L22.0833 9Z" fill="#43DD4E"/>
</svg>