<svg width="24" height="24" viewBox="0 0 24 24" fill="none" xmlns="http://www.w3.org/2000/svg">
<path d="M12.0002 14C6.99016 14 2.91016 17.36 2.91016 21.5C2.91016 21.78 3.13016 22 3.41016 22H20.5902C20.8702 22 21.0902 21.78 21.0902 21.5C21.0902 17.36 17.0102 14 12.0002 14Z" fill="white"/>
<path d="M16.8496 5.80002C16.7296 5.31002 16.5296 4.83002 16.2496 4.39002C16.0596 4.07002 15.8096 3.75002 15.5396 3.47002C14.6396 2.57002 13.4696 2.08002 12.2696 2.02002C10.9096 1.93002 9.5196 2.43002 8.4696 3.47002C7.4796 4.45002 6.9796 5.76002 6.9996 7.08002C7.0096 8.33002 7.5096 9.58002 8.4596 10.54C9.1196 11.2 9.9296 11.64 10.7996 11.84C11.2696 11.96 11.7696 12.02 12.2696 11.98C13.4596 11.93 14.6196 11.46 15.5296 10.54C16.8196 9.25002 17.2596 7.44002 16.8496 5.80002ZM13.9996 9.00002C13.6396 9.36002 13.0396 9.36002 12.6796 9.00002L11.9896 8.31002L11.3296 8.97002C10.9696 9.33002 10.3696 9.33002 10.0096 8.97002C9.6396 8.60002 9.6396 8.01002 9.9996 7.65002L10.6596 6.99002L10.0196 6.37002C9.6596 6.00002 9.6596 5.41002 10.0196 5.03002C10.3896 4.67002 10.9796 4.67002 11.3596 5.03002L11.9796 5.67002L12.6496 5.00002C13.0096 4.64002 13.5996 4.64002 13.9696 5.00002C14.3296 5.36002 14.3296 5.96002 13.9696 6.32002L13.3096 6.98002L13.9996 7.68002C14.3596 8.04002 14.3596 8.64002 13.9996 9.00002Z" fill="white"/>
</svg>
