<svg width="42" height="42" viewBox="0 0 42 42" fill="none" xmlns="http://www.w3.org/2000/svg">
<g id="Group 48098049">
<g id="Group">
<g id="Group_2">
<path id="Vector" fill-rule="evenodd" clip-rule="evenodd" d="M21.001 22.4812C19.068 22.4812 17.501 20.5827 17.501 18.2408C17.501 15.8989 19.068 14.0004 21.001 14.0004C22.934 14.0004 24.501 15.8989 24.501 18.2408C24.501 20.5827 22.934 22.4812 21.001 22.4812ZM18.0843 23.6927H23.9176C26.1728 23.6927 28.001 25.5912 28.001 27.9331V29.1447C28.001 29.4792 27.7398 29.7504 27.4176 29.7504H14.5843C14.2621 29.7504 14.001 29.4792 14.001 29.1447V27.9331C14.001 25.5912 15.8291 23.6927 18.0843 23.6927Z" fill="white"/>
<path id="Vector_2" d="M20.125 6.99945C11.9203 6.99945 5.25 13.6697 5.25 21.8745C5.25 30.0792 11.9203 36.7495 20.125 36.7495C28.3297 36.7495 35 30.0792 35 21.8745C35 13.6697 28.3297 6.99945 20.125 6.99945ZM8.53816 21.8745C8.53816 19.2752 9.41501 16.8639 10.8555 14.9223L27.0771 31.1439C25.1355 32.6158 22.7242 33.4613 20.125 33.4613C13.7366 33.4613 8.53816 28.2629 8.53816 21.8745ZM29.3945 28.8266L13.1729 12.605C15.1145 11.1331 17.5258 10.2876 20.125 10.2876C26.5134 10.2876 31.7118 15.486 31.7118 21.8745C31.7118 24.4737 30.8663 26.885 29.3945 28.8266Z" fill="white"/>
</g>
</g>
</g>
</svg>
