<svg width="18" height="18" viewBox="0 0 18 18" fill="none" xmlns="http://www.w3.org/2000/svg">
<g clip-path="url(#clip0_1234_9790)">
<path d="M3 5.25C3 4.85218 3.15804 4.47064 3.43934 4.18934C3.72064 3.90804 4.10218 3.75 4.5 3.75H13.5C13.8978 3.75 14.2794 3.90804 14.5607 4.18934C14.842 4.47064 15 4.85218 15 5.25V14.25C15 14.6478 14.842 15.0294 14.5607 15.3107C14.2794 15.592 13.8978 15.75 13.5 15.75H4.5C4.10218 15.75 3.72064 15.592 3.43934 15.3107C3.15804 15.0294 3 14.6478 3 14.25V5.25Z" stroke="url(#paint0_linear_1234_9790)" stroke-width="1.5" stroke-linecap="round" stroke-linejoin="round"/>
<path d="M12 2.25V5.25" stroke="url(#paint1_linear_1234_9790)" stroke-width="1.5" stroke-linecap="round" stroke-linejoin="round"/>
<path d="M6 2.25V5.25" stroke="url(#paint2_linear_1234_9790)" stroke-width="1.5" stroke-linecap="round" stroke-linejoin="round"/>
<path d="M3 8.25H15" stroke="url(#paint3_linear_1234_9790)" stroke-width="1.5" stroke-linecap="round" stroke-linejoin="round"/>
<path d="M6 11.25H7.5V12.75H6V11.25Z" stroke="url(#paint4_linear_1234_9790)" stroke-width="1.5" stroke-linecap="round" stroke-linejoin="round"/>
</g>
<defs>
<linearGradient id="paint0_linear_1234_9790" x1="9" y1="3.75" x2="9" y2="15.75" gradientUnits="userSpaceOnUse">
<stop stop-color="#62C860"/>
<stop offset="1" stop-color="#37C535"/>
</linearGradient>
<linearGradient id="paint1_linear_1234_9790" x1="12.5" y1="2.25" x2="12.5" y2="5.25" gradientUnits="userSpaceOnUse">
<stop stop-color="#62C860"/>
<stop offset="1" stop-color="#37C535"/>
</linearGradient>
<linearGradient id="paint2_linear_1234_9790" x1="6.5" y1="2.25" x2="6.5" y2="5.25" gradientUnits="userSpaceOnUse">
<stop stop-color="#62C860"/>
<stop offset="1" stop-color="#37C535"/>
</linearGradient>
<linearGradient id="paint3_linear_1234_9790" x1="9" y1="8.25" x2="9" y2="9.25" gradientUnits="userSpaceOnUse">
<stop stop-color="#62C860"/>
<stop offset="1" stop-color="#37C535"/>
</linearGradient>
<linearGradient id="paint4_linear_1234_9790" x1="6.75" y1="11.25" x2="6.75" y2="12.75" gradientUnits="userSpaceOnUse">
<stop stop-color="#62C860"/>
<stop offset="1" stop-color="#37C535"/>
</linearGradient>
<clipPath id="clip0_1234_9790">
<rect width="18" height="18" fill="white"/>
</clipPath>
</defs>
</svg>
