<svg xmlns="http://www.w3.org/2000/svg" width="29" height="29" viewBox="0 0 29 29" fill="none">
  <circle cx="14.5" cy="14.5" r="13.5" fill="white" stroke="#091619" strokeWidth="2"/>
  <path d="M16.645 8C17.324 8.00699 17.877 8.3566 18.199 8.9859C18.2821 9.15197 18.3981 9.39451 18.5195 9.65037L18.666 9.95975L18.738 10.1117L18.808 10.2655C18.836 10.3144 18.885 10.3494 18.948 10.3494C20.628 10.3494 22 11.7199 22 13.398V17.5514C22 19.2295 20.628 20.6 18.948 20.6H11.052C9.365 20.6 8 19.2295 8 17.5514V13.398C8 11.7199 9.365 10.3494 11.052 10.3494C11.108 10.3494 11.164 10.3214 11.185 10.2655L11.227 10.1816C11.423 9.76903 11.661 9.26559 11.801 8.9859C12.123 8.3566 12.669 8.00699 13.348 8H16.645ZM15 12.482C14.265 12.482 13.572 12.7687 13.047 13.2931C12.529 13.8175 12.242 14.5028 12.249 15.23C12.249 15.9642 12.536 16.6494 13.054 17.1738C13.579 17.6912 14.265 17.9779 15 17.9779C15.756 17.9779 16.442 17.6703 16.939 17.1738C17.436 16.6774 17.744 15.9921 17.751 15.23C17.751 14.5028 17.464 13.8105 16.946 13.2861C16.428 12.7687 15.735 12.482 15 12.482ZM15 13.5309C15.455 13.5309 15.882 13.7057 16.204 14.0273C16.526 14.3489 16.701 14.7755 16.701 15.23C16.694 16.1669 15.938 16.9291 15 16.9291C14.545 16.9291 14.118 16.7543 13.796 16.4326C13.474 16.111 13.299 15.6845 13.299 15.23V15.223C13.292 14.7825 13.467 14.3559 13.789 14.0343C14.118 13.7057 14.545 13.5309 15 13.5309ZM18.927 12.3142C18.577 12.3142 18.297 12.6009 18.297 12.9505C18.297 13.3001 18.577 13.5798 18.927 13.5798C19.277 13.5798 19.564 13.3001 19.564 12.9505C19.564 12.6009 19.277 12.3142 18.927 12.3142Z" fill="#091619"/>
</svg>