<svg width="50" height="50" viewBox="0 0 50 50" fill="none" xmlns="http://www.w3.org/2000/svg">
<rect width="50" height="50" rx="15" fill="#162423"/>
<path d="M28.055 13C29.316 13.0133 30.343 13.6792 30.941 14.8779C31.0954 15.1942 31.3107 15.6562 31.5362 16.1436L31.8083 16.7329L31.942 17.0222L32.072 17.3152C32.124 17.4084 32.215 17.475 32.332 17.475C35.452 17.475 38 20.0855 38 23.2819V31.1931C38 34.3896 35.452 37 32.332 37H17.668C14.535 37 12 34.3896 12 31.1931V23.2819C12 20.0855 14.535 17.475 17.668 17.475C17.772 17.475 17.876 17.4218 17.915 17.3152L17.993 17.1554C18.357 16.3696 18.799 15.4107 19.059 14.8779C19.657 13.6792 20.671 13.0133 21.932 13H28.055ZM25 21.5372C23.635 21.5372 22.348 22.0832 21.373 23.0821C20.411 24.081 19.878 25.3862 19.891 26.7714C19.891 28.1698 20.424 29.475 21.386 30.4739C22.361 31.4595 23.635 32.0056 25 32.0056C26.404 32.0056 27.678 31.4195 28.601 30.4739C29.524 29.5283 30.096 28.2231 30.109 26.7714C30.109 25.3862 29.576 24.0677 28.614 23.0688C27.652 22.0832 26.365 21.5372 25 21.5372ZM25 23.535C25.845 23.535 26.638 23.8679 27.236 24.4806C27.834 25.0932 28.159 25.9057 28.159 26.7714C28.146 28.556 26.742 30.0078 25 30.0078C24.155 30.0078 23.362 29.6748 22.764 29.0622C22.166 28.4495 21.841 27.6371 21.841 26.7714V26.758C21.828 25.919 22.153 25.1065 22.751 24.4939C23.362 23.8679 24.155 23.535 25 23.535ZM32.293 21.2175C31.643 21.2175 31.123 21.7636 31.123 22.4295C31.123 23.0954 31.643 23.6282 32.293 23.6282C32.943 23.6282 33.476 23.0954 33.476 22.4295C33.476 21.7636 32.943 21.2175 32.293 21.2175Z" fill="url(#paint0_linear_133_6644)"/>
<path d="M25.0002 23.5349C25.8452 23.5349 26.6382 23.8679 27.2362 24.4805C27.8342 25.0932 28.1592 25.9056 28.1592 26.7713C28.1462 28.556 26.7422 30.0077 25.0002 30.0077C24.1552 30.0077 23.3622 29.6748 22.7642 29.0621C22.1662 28.4495 21.8412 27.637 21.8412 26.7713V26.758C21.8282 25.9189 22.1532 25.1065 22.7512 24.4938C23.3622 23.8679 24.1552 23.5349 25.0002 23.5349Z" fill="url(#paint1_linear_133_6644)"/>
<defs>
<linearGradient id="paint0_linear_133_6644" x1="25" y1="13" x2="25" y2="37" gradientUnits="userSpaceOnUse">
<stop stop-color="#62C860"/>
<stop offset="1" stop-color="#37C535"/>
</linearGradient>
<linearGradient id="paint1_linear_133_6644" x1="25" y1="23.5349" x2="25" y2="30.0077" gradientUnits="userSpaceOnUse">
<stop stop-color="#62C860"/>
<stop offset="1" stop-color="#37C535"/>
</linearGradient>
</defs>
</svg>
