<svg width="14" height="13" viewBox="0 0 14 13" fill="none" xmlns="http://www.w3.org/2000/svg">
<path d="M8.645 0C9.324 0.00699223 9.877 0.356604 10.199 0.985905C10.2821 1.15197 10.3981 1.39451 10.5195 1.65037L10.666 1.95975L10.738 2.11165L10.808 2.26548C10.836 2.31443 10.885 2.34939 10.948 2.34939C12.628 2.34939 14 3.71987 14 5.398V9.55139C14 11.2295 12.628 12.6 10.948 12.6H3.052C1.365 12.6 0 11.2295 0 9.55139V5.398C0 3.71987 1.365 2.34939 3.052 2.34939C3.108 2.34939 3.164 2.32142 3.185 2.26548L3.227 2.18158C3.423 1.76903 3.661 1.26559 3.801 0.985905C4.123 0.356604 4.669 0.00699223 5.348 0H8.645ZM7 4.48202C6.265 4.48202 5.572 4.7687 5.047 5.29312C4.529 5.81754 4.242 6.50277 4.249 7.22997C4.249 7.96415 4.536 8.64939 5.054 9.17381C5.579 9.69123 6.265 9.97791 7 9.97791C7.756 9.97791 8.442 9.67026 8.939 9.17381C9.436 8.67736 9.744 7.99212 9.751 7.22997C9.751 6.50277 9.464 5.81054 8.946 5.28613C8.428 4.7687 7.735 4.48202 7 4.48202ZM7 5.53085C7.455 5.53085 7.882 5.70566 8.204 6.0273C8.526 6.34895 8.701 6.77547 8.701 7.22997C8.694 8.16693 7.938 8.92908 7 8.92908C6.545 8.92908 6.118 8.75427 5.796 8.43263C5.474 8.11099 5.299 7.68446 5.299 7.22997V7.22297C5.292 6.78246 5.467 6.35594 5.789 6.0343C6.118 5.70566 6.545 5.53085 7 5.53085ZM10.927 4.31421C10.577 4.31421 10.297 4.60089 10.297 4.9505C10.297 5.30011 10.577 5.5798 10.927 5.5798C11.277 5.5798 11.564 5.30011 11.564 4.9505C11.564 4.60089 11.277 4.31421 10.927 4.31421Z" fill="white"/>
</svg>
