<svg width="42" height="42" viewBox="0 0 42 42" fill="none" xmlns="http://www.w3.org/2000/svg">
<g id="Group 48098049">
<g id="Group">
<path id="Vector" d="M20.0289 6.16663C16.3186 6.16667 13.2695 9.18468 13.2695 12.8788V16.4919C13.2668 17.1979 13.8398 17.771 14.5459 17.7683C15.2491 17.7669 15.8176 17.1951 15.8148 16.4919V12.8788C15.8148 10.5726 17.6793 8.71195 20.0289 8.71195C22.3785 8.7119 24.243 10.5726 24.2429 12.8788V16.4919C24.2402 17.198 24.8133 17.7711 25.5194 17.7683C26.2215 17.7655 26.7885 17.194 26.7857 16.4919V12.8788L26.7833 12.7894C26.7348 9.1359 23.7094 6.16663 20.0289 6.16663Z" fill="white"/>
<path id="Vector_2" d="M13.5244 15.1736C11.3557 15.1736 9.56641 16.9631 9.56641 19.1316V30.1532C9.56641 32.3218 11.3557 34.1137 13.5244 34.1137H19.7488C20.4713 34.1137 20.8025 33.58 20.6266 32.8801C20.4814 32.3026 20.4069 31.708 20.4064 31.1092C20.407 27.0765 23.6768 23.8078 27.7095 23.8087C28.2277 23.8087 28.743 23.8639 29.2471 23.9725C29.9525 24.1244 30.4946 23.775 30.4946 23.0527V19.134C30.4946 16.9654 28.7126 15.1735 26.5441 15.1735L13.5244 15.1736Z" fill="white"/>
<path id="Vector_3" d="M27.7091 25.5678C26.2395 25.5679 24.8302 26.1517 23.791 27.1909C22.7518 28.23 22.168 29.6394 22.168 31.109C22.168 32.5786 22.7518 33.988 23.791 35.0272C24.8302 36.0664 26.2395 36.6502 27.7091 36.6502C29.1787 36.6502 30.5881 36.0664 31.6273 35.0272C32.6665 33.9881 33.2503 32.5786 33.2503 31.109C33.2503 29.6394 32.6665 28.23 31.6273 27.1908C30.5881 26.1517 29.1787 25.5679 27.7091 25.5678ZM27.6899 27.2258C27.8345 27.219 27.9776 27.2569 28.0998 27.3344L29.273 28.0816C29.3723 28.1453 29.454 28.2328 29.5106 28.3363C29.5672 28.4397 29.5968 28.5558 29.5968 28.6737C29.5968 28.7916 29.5672 28.9076 29.5106 29.011C29.454 29.1145 29.3723 29.2021 29.273 29.2657L28.0998 30.0129C28.0006 30.0756 27.8874 30.1126 27.7703 30.1204C27.6532 30.1282 27.536 30.1066 27.4294 30.0576C27.3228 30.0086 27.2302 29.9337 27.1599 29.8398C27.0896 29.7458 27.044 29.6359 27.0271 29.5198C26.8262 29.6049 26.6416 29.7269 26.4846 29.8845C25.8025 30.5661 25.8025 31.6533 26.4846 32.335C27.1667 33.0166 28.2546 33.0166 28.9366 32.335C29.3993 31.8703 29.5435 31.2137 29.3772 30.6318C29.3268 30.4526 29.3494 30.2609 29.4402 30.0984C29.531 29.9359 29.6824 29.816 29.8615 29.765C30.0405 29.7147 30.2322 29.7373 30.3947 29.8279C30.5571 29.9184 30.677 30.0696 30.7283 30.2482C31.0305 31.3095 30.7571 32.4975 29.9342 33.3266C29.9327 33.3266 29.9357 33.3266 29.9342 33.3266C28.7142 34.5459 26.7128 34.5457 25.4929 33.3266C24.2729 32.1074 24.2729 30.1117 25.4929 28.8925C25.9153 28.4706 26.4467 28.1818 27.0203 28.0518V27.9264C27.0209 27.8012 27.0549 27.6783 27.1189 27.5706C27.1828 27.4629 27.2743 27.3742 27.3841 27.3137C27.4786 27.2611 27.5818 27.231 27.6899 27.2258Z" fill="white"/>
</g>
</g>
</svg>
