<svg width="22" height="22" viewBox="0 0 22 22" fill="none" xmlns="http://www.w3.org/2000/svg">
<g id="Frame" clip-path="url(#clip0_133_6237)">
<path id="Vector" d="M13.75 6.41667L7.79164 12.375C7.42697 12.7397 7.2221 13.2343 7.2221 13.75C7.2221 14.2657 7.42697 14.7603 7.79164 15.125C8.15631 15.4897 8.65091 15.6946 9.16664 15.6946C9.68236 15.6946 10.177 15.4897 10.5416 15.125L16.5 9.16667C17.2293 8.43733 17.6391 7.44812 17.6391 6.41667C17.6391 5.38522 17.2293 4.39602 16.5 3.66668C15.7706 2.93733 14.7814 2.52759 13.75 2.52759C12.7185 2.52759 11.7293 2.93733 11 3.66668L5.04164 9.62501C3.94762 10.719 3.33301 12.2028 3.33301 13.75C3.33301 15.2972 3.94762 16.781 5.04164 17.875C6.13566 18.969 7.61946 19.5836 9.16664 19.5836C10.7138 19.5836 12.1976 18.969 13.2916 17.875L19.25 11.9167" stroke="white" stroke-width="1.5" stroke-linecap="round" stroke-linejoin="round"/>
</g>
<defs>
<clipPath id="clip0_133_6237">
<rect width="22" height="22" fill="white"/>
</clipPath>
</defs>
</svg>
