<svg width="20" height="20" viewBox="0 0 22 22" fill="none" xmlns="http://www.w3.org/2000/svg">
<path d="M11.018 1.8335C16.2247 1.8335 20.1663 6.1024 20.1663 10.9864C20.1663 16.6507 15.5463 20.1668 10.9997 20.1668C9.49634 20.1668 7.82801 19.7629 6.48967 18.9734C6.02217 18.6888 5.62801 18.4776 5.12384 18.6429L3.27217 19.1937C2.80467 19.3406 2.38301 18.9734 2.52051 18.4776L3.13467 16.4212C3.23551 16.1366 3.21717 15.8337 3.07051 15.595C2.28217 14.1445 1.83301 12.5562 1.83301 11.0139C1.83301 6.18502 5.69218 1.8335 11.018 1.8335ZM15.2072 9.84802C14.5563 9.84802 14.0338 10.3713 14.0338 11.0231C14.0338 11.6657 14.5563 12.1982 15.2072 12.1982C15.858 12.1982 16.3805 11.6657 16.3805 11.0231C16.3805 10.3713 15.858 9.84802 15.2072 9.84802ZM10.9813 9.84802C10.3397 9.83884 9.80801 10.3713 9.80801 11.0139C9.80801 11.6657 10.3305 12.189 10.9813 12.1982C11.6322 12.1982 12.1547 11.6657 12.1547 11.0231C12.1547 10.3713 11.6322 9.84802 10.9813 9.84802ZM6.75551 9.84802C6.10467 9.84802 5.58217 10.3713 5.58217 11.0231C5.58217 11.6657 6.11384 12.1982 6.75551 12.1982C7.40634 12.189 7.92884 11.6657 7.92884 11.0231C7.92884 10.3713 7.40634 9.84802 6.75551 9.84802Z" fill="url(#paint0_linear_175_202)"/>
<defs>
<linearGradient id="paint0_linear_175_202" x1="14.1425" y1="19.643" x2="8.6425" y2="1.57156" gradientUnits="userSpaceOnUse">
<stop stop-color="#BE8CFF"/>
<stop offset="1" stop-color="#872CFF"/>
</linearGradient>
</defs>
</svg>
