<svg width="42" height="42" viewBox="0 0 42 42" fill="none" xmlns="http://www.w3.org/2000/svg">
<rect y="6.10352e-05" width="42" height="42" rx="10" fill="#1C2C2E"/>
<path fill-rule="evenodd" clip-rule="evenodd" d="M14.3845 15.6154C13.28 15.6154 12.3845 16.5108 12.3845 17.6154V27.6154C12.3845 28.7199 13.28 29.6154 14.3845 29.6154H27.6153C28.7199 29.6154 29.6153 28.7199 29.6153 27.6154V17.6154C29.6153 16.5108 28.7199 15.6154 27.6153 15.6154H14.3845ZM19.7488 20.1553L23.5456 22.4878C23.8847 22.6956 23.8847 23.036 23.5456 23.2439L19.7488 25.5772C19.4113 25.7859 19.1332 25.6148 19.1332 25.1991V20.5333C19.1332 20.1177 19.4113 19.9466 19.7488 20.1553Z" fill="#3EDC4E"/>
<path d="M14.773 13.8083H27.285C27.7881 13.8121 28.2828 13.9368 28.7275 14.172L28.1631 12.5853C28.033 12.2173 27.7916 11.8989 27.4725 11.6741C27.1534 11.4494 26.7722 11.3295 26.3819 11.331H15.6448C15.2545 11.3295 14.8734 11.4494 14.5542 11.6741C14.2351 11.8989 13.9938 12.2173 13.8637 12.5853L13.3306 14.172C13.7753 13.9368 14.27 13.8121 14.773 13.8083Z" fill="#9747FF"/>
</svg>
