<svg width="24" height="24" viewBox="0 0 24 24"  xmlns="http://www.w3.org/2000/svg">
<path fill-rule="evenodd" clip-rule="evenodd" d="M5.00018 6.47388C3.89561 6.47388 3.00018 7.36931 3.00018 8.47388V19.0987C3.00018 20.2033 3.89561 21.0987 5.00018 21.0987H19C20.1046 21.0987 21 20.2033 21 19.0987V8.47388C21 7.36931 20.1046 6.47388 19 6.47388H5.00018ZM10.693 11.2164L14.6592 13.653C15.0135 13.8701 15.0135 14.2257 14.6592 14.4428L10.693 16.8803C10.3404 17.0983 10.05 16.9196 10.05 16.4854V11.6113C10.05 11.1771 10.3404 10.9984 10.693 11.2164Z" fill="#586769"/>
<path d="M5.49533 4.58594H18.5657C19.0912 4.5899 19.6081 4.72023 20.0726 4.96593L19.483 3.30838C19.347 2.92395 19.0949 2.59131 18.7616 2.35654C18.4282 2.12177 18.0301 1.99649 17.6223 1.99806H6.406C5.99826 1.99649 5.60012 2.12177 5.26674 2.35654C4.93337 2.59131 4.68126 2.92395 4.54535 3.30838L3.98846 4.96593C4.453 4.72023 4.96983 4.5899 5.49533 4.58594Z" fill="#586769"/>
</svg>

