<svg width="94" height="44" viewBox="0 0 94 44" fill="none" xmlns="http://www.w3.org/2000/svg">
<path fill-rule="evenodd" clip-rule="evenodd" d="M40 16.4738C38.8954 16.4738 38 17.3692 38 18.4738V29.0986C38 30.2032 38.8954 31.0986 40 31.0986H53.9998C55.1044 31.0986 55.9998 30.2032 55.9998 29.0986V18.4738C55.9998 17.3692 55.1044 16.4738 53.9998 16.4738H40ZM45.6928 21.2163L49.6591 23.6529C50.0133 23.87 50.0133 24.2256 49.6591 24.4427L45.6928 26.8802C45.3402 27.0982 45.0498 26.9195 45.0498 26.4853V21.6112C45.0498 21.177 45.3402 20.9983 45.6928 21.2163Z" fill="#586769"/>
<path d="M40.4951 14.586H53.5656C54.091 14.5899 54.6079 14.7203 55.0724 14.966L54.4828 13.3084C54.3469 12.924 54.0948 12.5913 53.7614 12.3566C53.428 12.1218 53.0299 11.9965 52.6221 11.9981H41.4058C40.9981 11.9965 40.5999 12.1218 40.2666 12.3566C39.9332 12.5913 39.6811 12.924 39.5452 13.3084L38.9883 14.966C39.4528 14.7203 39.9696 14.5899 40.4951 14.586Z" fill="#586769"/>
</svg>
