<svg width="42" height="42" viewBox="0 0 42 42" fill="none" xmlns="http://www.w3.org/2000/svg">
<rect width="42" height="42" rx="10" fill="#1C2C2E"/>
<path fill-rule="evenodd" clip-rule="evenodd" d="M14.3848 15.6152C13.2802 15.6152 12.3848 16.5107 12.3848 17.6152V27.6152C12.3848 28.7198 13.2802 29.6152 14.3848 29.6152H27.6155C28.7201 29.6152 29.6155 28.7198 29.6155 27.6152V17.6152C29.6155 16.5107 28.7201 15.6152 27.6155 15.6152H14.3848ZM19.749 20.1552L23.5458 22.4876C23.8849 22.6955 23.8849 23.0359 23.5458 23.2437L19.749 25.5771C19.4115 25.7858 19.1335 25.6147 19.1335 25.199V20.5332C19.1335 20.1175 19.4115 19.9465 19.749 20.1552Z" fill="url(#paint0_linear_133_4194)"/>
<path d="M14.7735 13.8084H27.2855C27.7886 13.8122 28.2833 13.9369 28.728 14.1721L28.1635 12.5854C28.0334 12.2174 27.7921 11.899 27.473 11.6742C27.1538 11.4495 26.7727 11.3296 26.3824 11.3311H15.6453C15.255 11.3296 14.8739 11.4495 14.5547 11.6742C14.2356 11.899 13.9943 12.2174 13.8641 12.5854L13.3311 14.1721C13.7757 13.9369 14.2705 13.8122 14.7735 13.8084Z" fill="url(#paint1_linear_133_4194)"/>
<defs>
<linearGradient id="paint0_linear_133_4194" x1="12.9251" y1="27.5593" x2="27.7862" y2="17.426" gradientUnits="userSpaceOnUse">
<stop stop-color="#C8EB49"/>
<stop offset="1" stop-color="#49DE4D"/>
</linearGradient>
<linearGradient id="paint1_linear_133_4194" x1="13.8139" y1="13.7549" x2="15.7564" y2="7.92263" gradientUnits="userSpaceOnUse">
<stop stop-color="#C8EB49"/>
<stop offset="1" stop-color="#49DE4D"/>
</linearGradient>
</defs>
</svg>
