<svg width="34" height="34" viewBox="0 0 34 34" fill="none" xmlns="http://www.w3.org/2000/svg">
<rect width="34" height="34" rx="10" fill="#162423"/>
<path d="M17.022 6.1665C23.1753 6.1665 27.8337 11.2116 27.8337 16.9836C27.8337 23.6778 22.3737 27.8332 17.0003 27.8332C15.2237 27.8332 13.252 27.3558 11.6703 26.4227C11.1178 26.0864 10.652 25.8368 10.0562 26.0321L7.86783 26.6831C7.31533 26.8567 6.81699 26.4227 6.97949 25.8368L7.70533 23.4065C7.82449 23.0702 7.80283 22.7122 7.62949 22.4301C6.69783 20.7158 6.16699 18.8388 6.16699 17.0161C6.16699 11.3092 10.7278 6.1665 17.022 6.1665ZM21.9728 15.6382C21.2037 15.6382 20.5862 16.2566 20.5862 17.027C20.5862 17.7864 21.2037 18.4157 21.9728 18.4157C22.742 18.4157 23.3595 17.7864 23.3595 17.027C23.3595 16.2566 22.742 15.6382 21.9728 15.6382ZM16.9787 15.6382C16.2203 15.6274 15.592 16.2566 15.592 17.0161C15.592 17.7864 16.2095 18.4049 16.9787 18.4157C17.7478 18.4157 18.3653 17.7864 18.3653 17.027C18.3653 16.2566 17.7478 15.6382 16.9787 15.6382ZM11.9845 15.6382C11.2153 15.6382 10.5978 16.2566 10.5978 17.027C10.5978 17.7864 11.2262 18.4157 11.9845 18.4157C12.7537 18.4049 13.3712 17.7864 13.3712 17.027C13.3712 16.2566 12.7537 15.6382 11.9845 15.6382Z" fill="url(#paint0_linear_133_4366)"/>
<defs>
<linearGradient id="paint0_linear_133_4366" x1="20.7146" y1="27.2141" x2="14.2146" y2="5.85694" gradientUnits="userSpaceOnUse">
<stop stop-color="#BE8CFF"/>
<stop offset="1" stop-color="#872CFF"/>
</linearGradient>
</defs>
</svg>
