<svg width="21" height="21" viewBox="0 0 21 21" fill="none" xmlns="http://www.w3.org/2000/svg">
<g clip-path="url(#clip0_782_171)">
<path d="M19.5 6.5V14.8526C19.5 15.5279 19.2369 16.1776 18.7644 16.6689C18.292 17.1603 17.6459 17.456 16.9584 17.4956L16.8 17.5H4.2C3.51131 17.5 2.84864 17.242 2.34757 16.7788C1.84649 16.3155 1.5449 15.682 1.5045 15.0079L1.5 14.8526V6.5L10.0005 12.0569L10.1049 12.1152C10.2279 12.1741 10.3631 12.2047 10.5 12.2047C10.6369 12.2047 10.7721 12.1741 10.8951 12.1152L10.9995 12.0569L19.5 6.5Z" fill="white"/>
<path d="M17.0934 3.5C18.1107 3.5 19.0027 4.01174 19.5 4.78113L10.5 10.5L1.5 4.78113C1.73617 4.41553 2.06064 4.10906 2.44635 3.88729C2.83206 3.66552 3.26782 3.53488 3.71727 3.50628L3.90659 3.5H17.0934Z" fill="white"/>
</g>
<defs>
<clipPath id="clip0_782_171">
<rect width="20" height="20" fill="white" transform="translate(0.5 0.5)"/>
</clipPath>
</defs>
</svg>
