<svg width="52" height="52" viewBox="0 0 52 52" fill="none" xmlns="http://www.w3.org/2000/svg">
<circle cx="26" cy="26" r="26" fill="white"/>
<path d="M26 41C34.2842 41 41 34.2842 41 26C41 17.7157 34.2842 11 26 11C17.7157 11 11 17.7157 11 26C11 34.2842 17.7157 41 26 41Z" fill="#1977F3"/>
<path d="M31.8386 30.3365L32.5031 25.9996H28.3434V23.1856C28.3434 22.0002 28.9234 20.8421 30.7882 20.8421H32.6803V17.1506C32.6803 17.1506 30.9632 16.8574 29.3221 16.8574C25.8964 16.8574 23.6563 18.9331 23.6563 22.6941V25.9996H19.8467V30.3365H23.6563V40.8182C24.4199 40.9384 25.2025 40.9996 25.9998 40.9996C26.7972 40.9996 27.5798 40.9363 28.3434 40.8182V30.3365H31.8386Z" fill="white"/>
</svg>
