<svg width="30" height="30" viewBox="0 0 30 30" fill="none" xmlns="http://www.w3.org/2000/svg">
<path d="M15 30C23.2842 30 30 23.2842 30 15C30 6.71572 23.2842 0 15 0C6.71572 0 0 6.71572 0 15C0 23.2842 6.71572 30 15 30Z" fill="#1977F3"/>
<path d="M20.8386 19.3365L21.5031 14.9996H17.3434V12.1856C17.3434 11.0002 17.9234 9.84209 19.7882 9.84209H21.6803V6.15063C21.6803 6.15063 19.9632 5.85742 18.3221 5.85742C14.8964 5.85742 12.6563 7.93308 12.6563 11.6941V14.9996H8.84668V19.3365H12.6563V29.8182C13.4199 29.9384 14.2025 29.9996 14.9998 29.9996C15.7972 29.9996 16.5798 29.9363 17.3434 29.8182V19.3365H20.8386Z" fill="white"/>
</svg>
