<svg width="42" height="42" viewBox="0 0 42 42" fill="none" xmlns="http://www.w3.org/2000/svg">
<g id="Group 48098050">
<g id="Group 48098050_2">
<path id="Vector" d="M34.2826 22.736C34.9376 21.9718 35.2652 21.0984 35.2652 20.0795C35.2652 19.1333 34.9376 18.3327 34.2462 17.6777C33.5548 16.9862 32.7542 16.6587 31.8444 16.6587H26.8953C26.9317 16.4768 27.0045 16.3676 27.0409 16.222C27.0772 16.1129 27.15 15.9673 27.2228 15.8217C27.2956 15.6762 27.3684 15.567 27.4048 15.4942C27.6231 15.0939 27.7687 14.7664 27.8778 14.5117C27.987 14.2569 28.0962 13.893 28.2054 13.4563C28.3145 13.0197 28.3873 12.5466 28.3873 12.1099C28.3873 11.8188 28.3873 11.6004 28.3873 11.4185C28.3873 11.2365 28.3509 10.9818 28.3145 10.6179C28.2781 10.254 28.2054 9.96284 28.0962 9.7081C28.0234 9.45337 27.8778 9.19863 27.6595 8.90751C27.4775 8.61638 27.2228 8.36165 26.9317 8.17969C26.6406 7.99774 26.313 7.85217 25.8763 7.70661C25.4397 7.59744 24.9666 7.52466 24.4207 7.52466C24.0932 7.52466 23.8385 7.63383 23.6201 7.85217C23.3654 8.10691 23.1834 8.39804 23.0015 8.76194C22.8195 9.12585 22.7104 9.41698 22.6376 9.7081C22.5648 9.96284 22.492 10.3267 22.4192 10.7998C22.3101 11.3093 22.2373 11.6732 22.1645 11.8915C22.1281 12.1099 22.0189 12.401 21.837 12.7649C21.6914 13.1288 21.5095 13.42 21.2911 13.6383C20.8908 14.0386 20.3086 14.73 19.4716 15.7854C18.8893 16.5496 18.2707 17.2774 17.652 17.9324C17.0334 18.6238 16.5967 18.9513 16.3056 18.9877C16.0145 19.0241 15.7597 19.1333 15.5414 19.3516C15.323 19.57 15.2139 19.8247 15.2139 20.1159V31.5425C15.2139 31.8337 15.323 32.1248 15.5414 32.3431C15.7597 32.5615 16.0509 32.6707 16.342 32.707C16.7423 32.707 17.6884 32.9982 19.1441 33.5076C20.0538 33.7988 20.7816 34.0535 21.2911 34.1991C21.8006 34.3446 22.5284 34.5266 23.4746 34.7085C24.3843 34.8905 25.2577 34.9997 26.0583 34.9997H28.3509C29.9157 34.9633 31.1166 34.5266 31.8808 33.6168C32.5722 32.7798 32.8634 31.7245 32.7542 30.378C33.2273 29.9413 33.5548 29.3955 33.7004 28.7041C33.9187 27.9762 33.9187 27.2848 33.7004 26.6298C34.2462 25.902 34.5009 25.1014 34.4646 24.1916C34.5737 23.6821 34.4646 23.2455 34.2826 22.736Z" fill="white"/>
<path id="Vector_2" d="M12.9936 18.9144H7.86249C7.57136 18.9144 7.28024 19.0235 7.06189 19.2419C6.84355 19.4602 6.73438 19.7514 6.73438 20.0425V31.4692C6.73438 31.7603 6.84355 32.0514 7.06189 32.2698C7.28024 32.4881 7.57136 32.5973 7.86249 32.5973H12.9936C13.3211 32.5973 13.5758 32.4881 13.7942 32.2698C14.0125 32.0514 14.1217 31.7603 14.1217 31.4692V20.0789C14.1217 19.7877 14.0125 19.4966 13.7942 19.2783C13.5758 19.0235 13.3211 18.9144 12.9936 18.9144ZM10.9557 30.0135C10.7374 30.2319 10.4462 30.3411 10.1551 30.3411C9.82759 30.3411 9.57285 30.2319 9.35451 30.0135C9.13616 29.7952 9.02699 29.5405 9.02699 29.2129C9.02699 28.9218 9.13616 28.6307 9.35451 28.4123C9.57285 28.194 9.82759 28.0848 10.1551 28.0848C10.4462 28.0848 10.7374 28.194 10.9557 28.4123C11.174 28.6307 11.2832 28.9218 11.2832 29.2129C11.2832 29.5041 11.174 29.7952 10.9557 30.0135Z" fill="white"/>
</g>
</g>
</svg>
