<svg xmlns="http://www.w3.org/2000/svg" width="50" height="50" viewBox="0 0 50 50" fill="none">
  <rect width="50" height="50" rx="15" fill="#162423"/>
  <path d="M30.2006 13C34.2677 13 37 15.8537 37 20.1001V29.8999C37 34.1463 34.2677 37 30.1994 37H19.7994C15.7323 37 13 34.1463 13 29.8999V20.1001C13 15.8537 15.7323 13 19.7994 13H30.2006ZM31.5239 25.6601C30.2376 24.8576 29.2445 25.9845 28.9766 26.3449C28.7184 26.6929 28.4963 27.0768 28.2622 27.4607C27.6903 28.4081 27.035 29.5003 25.9007 30.1356C24.2524 31.0483 23.001 30.2074 22.1009 29.5957C21.763 29.3678 21.4348 29.1523 21.1077 29.0087C20.3017 28.6607 19.5765 29.057 18.5001 30.4241C17.9354 31.1387 17.3754 31.8471 16.8083 32.5529C16.4692 32.9752 16.5501 33.6266 17.0074 33.909C17.7375 34.3585 18.628 34.6 19.6344 34.6H29.7477C30.3184 34.6 30.8904 34.522 31.4358 34.3437C32.6642 33.9424 33.6392 33.0235 34.1485 31.8099C34.5781 30.7895 34.7868 29.5511 34.385 28.5207C34.251 28.1789 34.0507 27.8607 33.7696 27.5808C33.0323 26.8489 32.3433 26.1653 31.5239 25.6601ZM20.7986 17.8C19.1443 17.8 17.8 19.1461 17.8 20.8C17.8 22.4539 19.1443 23.8 20.7986 23.8C22.4518 23.8 23.7973 22.4539 23.7973 20.8C23.7973 19.1461 22.4518 17.8 20.7986 17.8Z" fill="url(#paint0_linear_133_6652)"/>
  <defs>
    <linearGradient id="paint0_linear_133_6652" x1="25" y1="13" x2="25" y2="37" gradientUnits="userSpaceOnUse">
      <stop stop-color="#62C860"/>
      <stop offset="1" stop-color="#37C535"/>
    </linearGradient>
  </defs>
</svg>