<svg width="30" height="30" viewBox="0 0 30 30" fill="none" xmlns="http://www.w3.org/2000/svg">
<path fill-rule="evenodd" clip-rule="evenodd" d="M27.6922 14.9999C27.6922 22.0097 22.0097 27.6922 14.9999 27.6922C7.99016 27.6922 2.30762 22.0097 2.30762 14.9999C2.30762 7.99016 7.99016 2.30762 14.9999 2.30762C22.0097 2.30762 27.6922 7.99016 27.6922 14.9999ZM18.5576 10.6468L17.9967 10.3845L9.97589 18.9335L18.8381 17.7796L18.782 15.7866L15.4166 15.944L21.8669 12.5873L19.0624 21.923L18.8942 18.0419L8.57364 21.923L5.76916 19.5629L18.8381 6.923L20.2964 9.23069L18.5576 10.6468Z" fill="url(#paint0_linear_133_11704)"/>
<defs>
<linearGradient id="paint0_linear_133_11704" x1="14.9999" y1="2.30762" x2="14.9999" y2="27.6922" gradientUnits="userSpaceOnUse">
<stop stop-color="#62C860"/>
<stop offset="1" stop-color="#37C535"/>
</linearGradient>
</defs>
</svg>
