<svg width="52" height="52" viewBox="0 0 52 52" fill="none" xmlns="http://www.w3.org/2000/svg">
<circle cx="26" cy="26" r="26" fill="white"/>
<path fill-rule="evenodd" clip-rule="evenodd" d="M38.6922 25.9999C38.6922 33.0097 33.0097 38.6922 25.9999 38.6922C18.9902 38.6922 13.3076 33.0097 13.3076 25.9999C13.3076 18.9902 18.9902 13.3076 25.9999 13.3076C33.0097 13.3076 38.6922 18.9902 38.6922 25.9999ZM29.5576 21.6468L28.9967 21.3845L20.9759 29.9335L29.8381 28.7796L29.782 26.7866L26.4166 26.944L32.8669 23.5873L30.0624 32.923L29.8942 29.0419L19.5736 32.923L16.7692 30.5629L29.8381 17.923L31.2964 20.2307L29.5576 21.6468Z" fill="url(#paint0_linear_133_11702)"/>
<defs>
<linearGradient id="paint0_linear_133_11702" x1="25.9999" y1="13.3076" x2="25.9999" y2="38.6922" gradientUnits="userSpaceOnUse">
<stop stop-color="#62C860"/>
<stop offset="1" stop-color="#37C535"/>
</linearGradient>
</defs>
</svg>
