<svg width="20" height="19" viewBox="0 0 20 19" fill="none" xmlns="http://www.w3.org/2000/svg">
<path d="M13.0564 8.57501L8.33143 5.84801C7.91143 5.60401 7.56543 5.80401 7.56543 6.29001V11.745C7.56543 12.231 7.91143 12.431 8.33143 12.187L13.0564 9.45901C13.4784 9.21601 13.4784 8.81801 13.0564 8.57501Z" fill="white"/>
<path d="M17.192 0H2.231C1 0 0 0.999 0 2.231V15.803C0 17.034 1 18.033 2.231 18.033H17.193C18.425 18.033 19.423 17.034 19.423 15.803V2.231C19.423 0.999 18.425 0 17.192 0ZM9.712 15.659C6.044 15.659 3.069 12.685 3.069 9.017C3.069 5.349 6.044 2.375 9.712 2.375C13.38 2.375 16.353 5.349 16.353 9.017C16.353 12.685 13.38 15.659 9.712 15.659Z" fill="white"/>
</svg>
