<svg width="22" height="22" viewBox="0 0 22 22" fill="none" xmlns="http://www.w3.org/2000/svg">
<path fill-rule="evenodd" clip-rule="evenodd" d="M22 11C22 17.0751 17.0751 22 11 22C4.92487 22 0 17.0751 0 11C0 4.92487 4.92487 0 11 0C17.0751 0 22 4.92487 22 11ZM14.0833 7.22727L13.5972 7L6.64583 14.4091L14.3264 13.4091L14.2778 11.6818L11.3611 11.8182L16.9514 8.90909L14.5208 17L14.375 13.6364L5.43056 17L3 14.9545L14.3264 4L15.5903 6L14.0833 7.22727Z" fill="url(#paint0_linear_1783_3913)"/>
<defs>
<linearGradient id="paint0_linear_1783_3913" x1="3.38462" y1="1.26923" x2="19.4615" y2="22" gradientUnits="userSpaceOnUse">
<stop stop-color="#00831D"/>
<stop offset="0.577101" stop-color="#86CC03"/>
<stop offset="1" stop-color="#FBF768"/>
</linearGradient>
</defs>
</svg>
