<svg width="35" height="34" viewBox="0 0 35 34" fill="none" xmlns="http://www.w3.org/2000/svg">
<rect x="0.93457" width="34" height="34" rx="10" fill="#162423"/>
<path fill-rule="evenodd" clip-rule="evenodd" d="M28.9346 17C28.9346 23.0751 24.0097 28 17.9346 28C11.8594 28 6.93457 23.0751 6.93457 17C6.93457 10.9249 11.8594 6 17.9346 6C24.0097 6 28.9346 10.9249 28.9346 17ZM21.0179 13.2273L20.5318 13L13.5804 20.4091L21.261 19.4091L21.2123 17.6818L18.2957 17.8182L23.886 14.9091L21.4554 23L21.3096 19.6364L12.3651 23L9.93457 20.9545L21.261 10L22.5248 12L21.0179 13.2273Z" fill="#586769"/>
</svg>
