<svg width="21" height="21" viewBox="0 0 21 21" fill="none" xmlns="http://www.w3.org/2000/svg">
<g clip-path="url(#clip0_782_1256)">
<path d="M4.93242 12.5863L4.23625 15.1852L1.69176 15.239C0.931328 13.8286 0.5 12.2149 0.5 10.5C0.5 8.84179 0.903281 7.27804 1.61812 5.90112H1.61867L3.88398 6.31644L4.87633 8.56815C4.66863 9.17366 4.55543 9.82366 4.55543 10.5C4.55551 11.2341 4.68848 11.9374 4.93242 12.5863Z" fill="white"/>
<path d="M20.3253 8.6319C20.4401 9.23682 20.5 9.86155 20.5 10.5C20.5 11.216 20.4247 11.9143 20.2813 12.588C19.7945 14.8803 18.5225 16.8819 16.7605 18.2984L16.7599 18.2978L13.9066 18.1522L13.5028 15.6313C14.672 14.9456 15.5858 13.8726 16.0671 12.588H10.7198V8.6319H16.1451H20.3253Z" fill="white"/>
<path d="M16.7599 18.2978L16.7604 18.2984C15.0467 19.6758 12.8698 20.5 10.5 20.5C6.69177 20.5 3.3808 18.3715 1.69177 15.239L4.93244 12.5863C5.77693 14.8401 7.95111 16.4445 10.5 16.4445C11.5956 16.4445 12.622 16.1484 13.5027 15.6313L16.7599 18.2978Z" fill="white"/>
<path d="M16.8829 2.80219L13.6434 5.45437C12.7319 4.88461 11.6544 4.55547 10.5 4.55547C7.89338 4.55547 5.67853 6.23348 4.87635 8.56812L1.61865 5.90109H1.6181C3.2824 2.6923 6.63513 0.5 10.5 0.5C12.9263 0.5 15.1511 1.3643 16.8829 2.80219Z" fill="white"/>
</g>
<defs>
<clipPath id="clip0_782_1256">
<rect width="20" height="20" fill="white" transform="translate(0.5 0.5)"/>
</clipPath>
</defs>
</svg>
