<svg width="20" height="20" viewBox="0 0 20 20" fill="none" xmlns="http://www.w3.org/2000/svg">
<path d="M7.13477 18.7733V15.7156C7.13477 14.9351 7.77216 14.3023 8.55843 14.3023H11.4326C11.8102 14.3023 12.1723 14.4512 12.4393 14.7162C12.7063 14.9813 12.8563 15.3408 12.8563 15.7156V18.7733C12.8539 19.0978 12.9821 19.4099 13.2124 19.6402C13.4427 19.8705 13.756 20 14.0829 20H16.0438C16.9596 20.0023 17.8387 19.6428 18.4872 19.0008C19.1356 18.3588 19.5 17.487 19.5 16.5778V7.86685C19.5 7.13245 19.1721 6.43584 18.6046 5.96466L11.934 0.675868C10.7737 -0.251438 9.1111 -0.221498 7.98538 0.746978L1.46701 5.96466C0.87274 6.42195 0.517552 7.12063 0.5 7.86685V16.5689C0.5 18.4638 2.04738 20 3.95617 20H5.87228C6.55122 20 7.10299 19.4562 7.10791 18.7822L7.13477 18.7733Z" fill="url(#paint0_linear_748_4648)"/>
<defs>
<linearGradient id="paint0_linear_748_4648" x1="9.99999" y1="0" x2="9.99999" y2="20" gradientUnits="userSpaceOnUse">
<stop stop-color="#62C860"/>
<stop offset="1" stop-color="#37C535"/>
</linearGradient>
</defs>
</svg>

