<svg version="1.1" id="Layer_1" xmlns="http://www.w3.org/2000/svg" xmlns:xlink="http://www.w3.org/1999/xlink" x="0px" y="0px"
	 width="100%" viewBox="0 0 225 225" enable-background="new 0 0 225 225" xml:space="preserve">
<path fill="#FEFDFE" opacity="1.000000" stroke="none" 
	d="
M125.000000,226.000000 
	C83.333336,226.000000 42.166672,226.000000 1.000005,226.000000 
	C1.000004,151.000000 1.000004,76.000015 1.000002,1.000016 
	C75.999992,1.000010 150.999985,1.000010 225.999969,1.000005 
	C225.999985,75.999985 225.999985,150.999969 226.000000,225.999969 
	C192.500000,226.000000 159.000000,226.000000 125.000000,226.000000 
M100.156967,50.931068 
	C98.857155,50.540455 97.562592,49.833832 96.256660,49.812176 
	C89.431572,49.698982 82.603600,49.759735 75.776634,49.759853 
	C69.669762,49.759960 63.562885,49.759880 57.130096,49.759880 
	C57.130096,92.477173 57.130096,134.813110 57.130096,177.426544 
	C70.779953,177.426544 84.067039,177.474075 97.351868,177.323242 
	C98.270660,177.312820 99.172691,175.824966 100.486961,174.305984 
	C100.486961,166.097305 100.486961,157.888626 100.486961,149.778809 
	C104.945702,149.778809 108.364532,149.778809 112.284462,149.778809 
	C112.284462,154.291901 112.284462,158.483917 112.284462,163.061981 
	C117.193916,163.061981 121.593163,163.061981 126.146843,163.061981 
	C126.146843,165.270432 125.929062,167.109253 126.197037,168.874329 
	C126.616417,171.636673 127.364304,174.349152 128.878098,177.365540 
	C142.469421,177.365540 156.060730,177.365540 169.926285,177.365540 
	C169.926285,162.877045 169.926285,148.951553 169.742493,134.246613 
	C165.046844,133.754288 160.351196,133.261978 155.692474,132.773529 
	C155.692474,129.469543 155.528915,126.336838 155.738770,123.229362 
	C155.945923,120.161644 154.690262,119.005524 151.724625,119.123947 
	C148.774277,119.241753 145.815536,119.149765 142.503204,119.149765 
	C142.503204,115.327751 142.503204,111.760422 142.503204,107.928314 
	C145.201843,107.928314 147.814407,107.772545 150.401154,107.964584 
	C154.349106,108.257675 156.346695,107.050812 155.769333,102.655991 
	C155.411835,99.934837 155.703033,97.128464 155.703033,93.859329 
	C157.841583,93.859329 159.819443,94.089302 161.720291,93.804787 
	C164.489563,93.390282 167.203430,92.605507 170.164795,91.067650 
	C170.164795,77.364601 170.164795,63.661556 170.164795,49.918449 
	C155.706924,49.918449 141.836975,49.918449 127.179276,50.120605 
	C126.686501,54.813503 126.193726,59.506401 125.678856,64.409729 
	C121.095474,64.409729 116.707390,64.409729 111.931320,64.409729 
	C111.931320,68.922264 111.931320,72.999794 111.931320,77.076752 
	C107.982475,77.076752 104.443756,77.076752 100.742882,77.076752 
	C100.742882,74.789192 100.787987,72.973663 100.734749,71.161018 
	C100.545433,64.715111 100.322624,58.270187 100.156967,50.931068 
z"/>
<path fill="#1EDE14" opacity="1.000000" stroke="none" 
	d="
M127.973022,177.082748 
	C127.364304,174.349152 126.616417,171.636673 126.197037,168.874329 
	C125.929062,167.109253 126.146843,165.270432 126.146843,163.061981 
	C121.593163,163.061981 117.193916,163.061981 112.284462,163.061981 
	C112.284462,158.483917 112.284462,154.291901 112.284462,149.778809 
	C108.364532,149.778809 104.945702,149.778809 100.486961,149.778809 
	C100.486961,157.888626 100.486961,166.097305 99.889587,174.813950 
	C98.828049,175.501114 98.364777,175.834351 97.899605,175.837021 
	C85.594406,175.907623 73.288704,175.906677 60.983898,176.013153 
	C57.966679,176.039246 57.994640,174.151779 57.995293,172.031769 
	C58.007309,133.108749 58.034035,94.185646 57.946865,55.262817 
	C57.939663,52.047207 58.871731,50.831242 62.188911,50.941978 
	C68.502693,51.152748 74.830856,50.895443 81.148712,51.032379 
	C87.472733,51.169453 93.791451,51.550682 100.112495,51.824890 
	C100.322624,58.270187 100.545433,64.715111 100.734749,71.161018 
	C100.787987,72.973663 100.742882,74.789192 100.742882,77.076752 
	C104.443756,77.076752 107.982475,77.076752 111.931320,77.076752 
	C111.931320,72.999794 111.931320,68.922264 111.931320,64.409729 
	C116.707390,64.409729 121.095474,64.409729 125.678856,64.409729 
	C126.193726,59.506401 126.686501,54.813503 127.855736,50.334629 
	C139.652115,50.699654 150.771835,50.868652 161.892029,50.995605 
	C169.868393,51.086670 168.960419,50.256161 168.990005,58.329956 
	C169.024750,67.812553 168.951019,77.295822 169.040192,86.777710 
	C169.056519,88.514008 169.626511,90.245102 169.940918,91.978600 
	C167.203430,92.605507 164.489563,93.390282 161.720291,93.804787 
	C159.819443,94.089302 157.841583,93.859329 155.703033,93.859329 
	C155.703033,97.128464 155.411835,99.934837 155.769333,102.655991 
	C156.346695,107.050812 154.349106,108.257675 150.401154,107.964584 
	C147.814407,107.772545 145.201843,107.928314 142.503204,107.928314 
	C142.503204,111.760422 142.503204,115.327751 142.503204,119.149765 
	C145.815536,119.149765 148.774277,119.241753 151.724625,119.123947 
	C154.690262,119.005524 155.945923,120.161644 155.738770,123.229362 
	C155.528915,126.336838 155.692474,129.469543 155.692474,132.773529 
	C160.351196,133.261978 165.046844,133.754288 169.548492,134.936401 
	C169.235336,147.586716 169.000244,159.547913 169.069687,171.507324 
	C169.089767,174.968964 168.057678,176.133575 164.541656,176.067917 
	C154.064392,175.872192 143.580658,175.949463 133.100647,176.046783 
	C131.388367,176.062683 129.682083,176.721222 127.973022,177.082748 
z"/>
<path fill="#01DA01" opacity="1.000000" stroke="none" 
	d="
M100.134735,51.377979 
	C93.791451,51.550682 87.472733,51.169453 81.148712,51.032379 
	C74.830856,50.895443 68.502693,51.152748 62.188911,50.941978 
	C58.871731,50.831242 57.939663,52.047207 57.946865,55.262817 
	C58.034035,94.185646 58.007309,133.108749 57.995293,172.031769 
	C57.994640,174.151779 57.966679,176.039246 60.983898,176.013153 
	C73.288704,175.906677 85.594406,175.907623 97.899605,175.837021 
	C98.364777,175.834351 98.828049,175.501114 99.687363,175.173035 
	C99.172691,175.824966 98.270660,177.312820 97.351868,177.323242 
	C84.067039,177.474075 70.779953,177.426544 57.130096,177.426544 
	C57.130096,134.813110 57.130096,92.477173 57.130096,49.759880 
	C63.562885,49.759880 69.669762,49.759960 75.776634,49.759853 
	C82.603600,49.759735 89.431572,49.698982 96.256660,49.812176 
	C97.562592,49.833832 98.857155,50.540455 100.134735,51.377979 
z"/>
<path fill="#00DD00" opacity="1.000000" stroke="none" 
	d="
M170.052856,91.523125 
	C169.626511,90.245102 169.056519,88.514008 169.040192,86.777710 
	C168.951019,77.295822 169.024750,67.812553 168.990005,58.329956 
	C168.960419,50.256161 169.868393,51.086670 161.892029,50.995605 
	C150.771835,50.868652 139.652115,50.699654 128.249619,50.233551 
	C141.836975,49.918449 155.706924,49.918449 170.164795,49.918449 
	C170.164795,63.661556 170.164795,77.364601 170.052856,91.523125 
z"/>
<path fill="#00DD00" opacity="1.000000" stroke="none" 
	d="
M128.425568,177.224152 
	C129.682083,176.721222 131.388367,176.062683 133.100647,176.046783 
	C143.580658,175.949463 154.064392,175.872192 164.541656,176.067917 
	C168.057678,176.133575 169.089767,174.968964 169.069687,171.507324 
	C169.000244,159.547913 169.235336,147.586716 169.640381,135.326141 
	C169.926285,148.951553 169.926285,162.877045 169.926285,177.365540 
	C156.060730,177.365540 142.469421,177.365540 128.425568,177.224152 
z"/>
</svg>