<svg xmlns="http://www.w3.org/2000/svg" width="14" height="14" viewBox="0 0 14 14" fill="none">
  <circle cx="7" cy="7" r="7" fill="#FECD00"/>
  <path fill-rule="evenodd" clip-rule="evenodd" d="M6.72159 4.07462C6.80601 4.02577 6.90218 4 7.00013 4C7.09808 4 7.19424 4.02577 7.27866 4.07462C7.36309 4.12348 7.43268 4.19365 7.48026 4.27787L8.49128 6.0678L10.2277 5.30875C10.3211 5.26789 10.4243 5.25352 10.5257 5.26724C10.627 5.28096 10.7224 5.32222 10.8011 5.3864C10.8799 5.45058 10.9389 5.5351 10.9714 5.63047C11.004 5.72582 11.0088 5.82823 10.9854 5.92615L10.1103 9.58385C10.0932 9.65478 10.0616 9.72156 10.0176 9.78018C9.97354 9.83881 9.91789 9.88807 9.85399 9.925C9.79009 9.96194 9.71926 9.98577 9.64575 9.99509C9.57256 10.0044 9.49823 9.99905 9.42717 9.97946C7.83823 9.5484 6.16028 9.54855 4.57143 9.97991C4.50035 9.99952 4.42599 10.0048 4.35277 9.99557C4.27924 9.98625 4.20838 9.96241 4.14446 9.92545C4.08055 9.8885 4.02489 9.83921 3.98083 9.78055C3.93679 9.72189 3.90527 9.65507 3.88815 9.58412L3.88803 9.58356L3.01455 5.92581C2.99117 5.8279 2.99604 5.72552 3.02862 5.63019C3.06119 5.53485 3.12018 5.45036 3.19893 5.38621C3.27769 5.32207 3.37309 5.28082 3.47439 5.26712C3.57569 5.25341 3.67887 5.26779 3.77231 5.30863L5.50898 6.0678L6.52001 4.27787C6.56757 4.19365 6.63718 4.12348 6.72159 4.07462ZM9.09466 8.51344C7.72966 8.14313 6.28817 8.14326 4.92323 8.51384C4.79327 8.54912 4.717 8.68134 4.75287 8.80916C4.78875 8.93698 4.92317 9.01199 5.05314 8.97671C6.33308 8.62922 7.68483 8.62908 8.96485 8.97635C9.09482 9.01161 9.22923 8.93657 9.26508 8.80874C9.30092 8.68091 9.22463 8.54871 9.09466 8.51344Z" fill="#091619"/>
</svg>