<svg width="20" height="20" viewBox="0 0 20 20" fill="none" xmlns="http://www.w3.org/2000/svg">
<circle cx="10" cy="10" r="10" fill="url(#paint0_linear_175_186)"/>
<path d="M4.01562 9.57698V13.6434C4.01562 13.9954 4.30073 14.2805 4.65267 14.2805H6.10273V8.93994H4.65267C4.30073 8.93994 4.01562 9.22641 4.01562 9.57698Z" fill="white"/>
<path d="M14.8183 8.127H10.9551C10.7464 8.127 10.5758 7.95648 10.5758 7.74778V4.69759C10.5758 4.34565 10.2907 4.06055 9.93879 4.06055H9.12578C8.77383 4.06055 8.48873 4.34565 8.48873 4.69759V6.52688C8.48873 6.61282 8.45872 6.6974 8.40551 6.76424L6.86133 8.69311V14.2805H12.7857C13.2086 14.2805 13.7583 13.9573 13.9643 13.5876L15.0092 11.7051C15.252 11.2699 15.4553 10.4815 15.4553 9.98357V8.76404C15.4553 8.4121 15.1702 8.127 14.8183 8.127Z" fill="white"/>
<defs>
<linearGradient id="paint0_linear_175_186" x1="3.07692" y1="1.15385" x2="17.6923" y2="20" gradientUnits="userSpaceOnUse">
<stop stop-color="#00831D"/>
<stop offset="0.577101" stop-color="#86CC03"/>
<stop offset="1" stop-color="#FBF768"/>
</linearGradient>
</defs>
</svg>

