<svg width="42" height="42" viewBox="0 0 42 42" fill="none" xmlns="http://www.w3.org/2000/svg">
<g id="Group 48098049">
<g id="Group">
<path id="Vector" d="M28.3393 16.0235C28.218 16.1366 28.2115 16.3265 28.3246 16.4477L31.1215 19.4424C31.3006 19.6341 31.1647 19.9471 30.9023 19.9471H25.3674C25.2017 19.9471 25.0674 20.0815 25.0674 20.2471V22.4538C25.0674 22.6195 25.2017 22.7538 25.3674 22.7538H30.9023C31.1647 22.7538 31.3006 23.0669 31.1215 23.2586L28.3246 26.2533C28.2115 26.3744 28.218 26.5644 28.3393 26.6775L29.97 28.1976C30.0912 28.3106 30.2812 28.3039 30.3942 28.1825L36.5602 21.5548C36.6673 21.4397 36.6673 21.2613 36.5602 21.1461L30.3942 14.5185C30.2812 14.3971 30.0912 14.3904 29.97 14.5034L28.3393 16.0235Z" fill="white"/>
<path id="Vector_2" d="M16.2963 20.2472C16.2963 20.0815 16.4307 19.9472 16.5963 19.9472H24.7673C24.933 19.9472 25.0673 19.8129 25.0673 19.6472V8.66951C25.0673 8.50382 24.933 8.36951 24.7673 8.36951H7.82539C7.6597 8.36951 7.52539 8.50382 7.52539 8.66951V33.3299C7.52539 33.4955 7.65971 33.6299 7.82539 33.6299H24.7673C24.933 33.6299 25.0673 33.4955 25.0673 33.3299V23.0539C25.0673 22.8882 24.933 22.7539 24.7673 22.7539H16.5963C16.4307 22.7539 16.2963 22.6196 16.2963 22.4539V20.2472Z" fill="white"/>
</g>
</g>
</svg>
