<svg width="20" height="20" viewBox="0 0 20 20" fill="none" xmlns="http://www.w3.org/2000/svg">
<circle cx="10" cy="10" r="10" fill="url(#paint0_linear_175_195)"/>
<path d="M7.68571 5.625C5.89802 5.625 4.375 6.96938 4.375 8.71538C4.375 9.91988 4.93579 10.934 5.67903 11.774C6.41971 12.6111 7.37531 13.3138 8.2392 13.9019L9.72973 14.9167C9.89297 15.0278 10.107 15.0278 10.2703 14.9167L11.7608 13.9019C12.6247 13.3138 13.5803 12.6111 14.321 11.774C15.0642 10.934 15.625 9.91988 15.625 8.71538C15.625 6.96938 14.102 5.625 12.3143 5.625C11.3928 5.625 10.5819 6.05957 10 6.62187C9.41811 6.05957 8.60723 5.625 7.68571 5.625Z" fill="white"/>
<defs>
<linearGradient id="paint0_linear_175_195" x1="10" y1="0" x2="10" y2="20" gradientUnits="userSpaceOnUse">
<stop stop-color="#FF789D"/>
<stop offset="1" stop-color="#F70D4D"/>
</linearGradient>
</defs>
</svg>
