<svg width="32" height="32" viewBox="0 0 32 32" fill="none" xmlns="http://www.w3.org/2000/svg">
<circle opacity="0.1" cx="16" cy="16" r="16" fill="white"/>
<path d="M21.7909 8.21442C22.0759 7.92951 22.5301 7.92783 22.826 8.21358C23.1134 8.50101 23.1134 8.96525 22.8268 9.25184L9.25073 22.8271C9.1158 22.9621 8.92137 23.0417 8.73196 23.0417C8.54674 23.0417 8.36404 22.9662 8.21654 22.8297C7.92824 22.5305 7.92824 22.0755 8.21403 21.7897L10.4517 19.5523H10.4291C9.31359 19.5523 8.50149 18.7646 8.35063 17.5412C8.18218 16.3177 8.2157 14.2227 8.35063 13.1082C8.50903 11.9518 9.36471 11.1566 10.4291 11.1566H11.8781L14.6438 8.89402C14.9799 8.60911 15.5749 8.34012 16.035 8.33257C16.8731 8.33257 17.6441 8.91832 17.9207 9.85686C18.0296 10.2516 18.0724 10.6446 18.1059 11.0225L18.1721 11.558C18.183 11.6401 18.1931 11.7189 18.2014 11.8027L21.7909 8.21442ZM17.8859 16.3348C18.1935 16.4127 18.2538 16.8543 18.2488 17.2013C18.2345 18.2085 18.201 18.9091 18.1474 19.3423L18.1097 19.6993C18.0736 20.0605 18.0368 20.4342 17.9295 20.8331C17.6504 21.7699 16.902 22.3783 16.0513 22.3783C16.0237 22.3783 15.996 22.3783 15.9675 22.3775C15.4974 22.3775 14.9878 22.0959 14.6987 21.8504L13.6687 21.0535C13.2773 20.7627 13.3929 20.2985 13.6125 20.0295C13.7123 19.9076 14.4816 19.1896 15.3017 18.432L15.6311 18.1282C16.5087 17.3195 17.3504 16.5501 17.4057 16.4957C17.5188 16.3851 17.7719 16.3055 17.8859 16.3348Z" fill="white"/>
</svg>
