<svg xmlns="http://www.w3.org/2000/svg" width="20" height="15" viewBox="0 0 20 15" fill="none">
  <g clip-path="url(#clip0_133_5946)">
    <path d="M0.439619 10.8763C-0.287725 11.3385 -0.044751 12.2162 1.5046 12.6333C3.10287 13.1421 4.84628 13.2807 6.54237 13.0036C6.63861 13.0036 6.73643 12.957 6.78534 12.957V11.3837L5.13817 11.8925C4.50865 12.0777 3.87912 12.1244 3.2496 11.9844C2.76523 11.8459 2.86147 11.5688 3.44366 11.337L6.78534 10.2274V8.51859L2.13413 10.0437C1.55351 10.2289 0.971322 10.5059 0.439619 10.8763ZM11.6764 3.94171V8.42525C13.6628 9.34965 15.2121 8.42525 15.2121 6.02239C15.2121 3.57285 14.2923 2.46326 11.6275 1.58552C10.2233 1.12181 8.77016 0.706282 7.31705 0.42926V13.788L10.7076 14.7591V3.52618C10.7076 3.0173 10.7076 2.64844 11.0958 2.78695C11.629 2.92547 11.6764 3.43434 11.6764 3.94171ZM17.9748 9.81186C16.5706 9.34965 15.0686 9.16447 13.6154 9.30298C12.8408 9.34965 12.1134 9.53484 11.435 9.76519L11.2898 9.81186V11.6155L14.439 10.5059C15.0686 10.3207 15.6981 10.2741 16.3276 10.4141C16.812 10.5526 16.7157 10.8296 16.1335 11.0615L11.2898 12.7718V14.5288L17.9748 12.1711C18.4591 11.9859 18.8946 11.7555 19.2827 11.3852C19.6219 10.9215 19.4768 10.2741 17.9748 9.81186Z" fill="#0070D1"/>
  </g>
  <defs>
    <clipPath id="clip0_133_5946">
      <rect width="19.3874" height="14.3298" fill="white" transform="translate(0.046875 0.42926)"/>
    </clipPath>
  </defs>
</svg>