<svg width="31" height="31" viewBox="0 0 31 31" fill="none" xmlns="http://www.w3.org/2000/svg">
<rect width="30.3456" height="30.3456" rx="10" fill="white"/>
<g clip-path="url(#clip0_1259_10009)">
<path d="M6.29313 18.8762C5.56579 19.3384 5.80876 20.2162 7.35812 20.6332C8.95638 21.1421 10.6998 21.2806 12.3959 21.0036C12.4921 21.0036 12.5899 20.9569 12.6389 20.9569V19.3836L10.9917 19.8925C10.3622 20.0777 9.73264 20.1243 9.10311 19.9843C8.61874 19.8458 8.71499 19.5688 9.29718 19.3369L12.6389 18.2273V16.5185L7.98764 18.0437C7.40703 18.2288 6.82484 18.5059 6.29313 18.8762ZM17.5299 11.9417V16.4252C19.5163 17.3496 21.0656 16.4252 21.0656 14.0223C21.0656 11.5728 20.1458 10.4632 17.481 9.58546C16.0768 9.12175 14.6237 8.70622 13.1706 8.4292V21.788L16.5612 22.759V11.5261C16.5612 11.0172 16.5612 10.6484 16.9493 10.7869C17.4826 10.9254 17.5299 11.4343 17.5299 11.9417ZM23.8283 17.8118C22.4241 17.3496 20.9221 17.1644 19.469 17.3029C18.6943 17.3496 17.9669 17.5348 17.2885 17.7651L17.1433 17.8118V19.6154L20.2925 18.5059C20.9221 18.3207 21.5516 18.274 22.1811 18.414C22.6655 18.5525 22.5692 18.8296 21.987 19.0614L17.1433 20.7717V22.5287L23.8283 20.171C24.3127 19.9858 24.7481 19.7555 25.1362 19.3851C25.4755 18.9214 25.3303 18.274 23.8283 17.8118Z" fill="#0070D1"/>
</g>
<defs>
<clipPath id="clip0_1259_10009">
<rect width="19.3874" height="14.3298" fill="white" transform="translate(5.90039 8.4292)"/>
</clipPath>
</defs>
</svg>
