<svg width="42" height="42" viewBox="0 0 42 42" fill="none" xmlns="http://www.w3.org/2000/svg">
<g id="Group 48098131">
<path id="Vector" d="M33.1732 11.585C33.1667 11.4255 33.0996 11.275 32.9864 11.1663C32.8732 11.0575 32.723 10.9992 32.5685 11.0039C30.1643 11.0511 25.4157 10.6343 21.3834 7.14404C21.2765 7.05072 21.1411 6.99951 21.0011 6.99951C20.8611 6.99951 20.7256 7.05072 20.6187 7.14404C16.5907 10.635 11.8415 11.0512 9.43343 11.0039C9.27886 10.9992 9.12871 11.0575 9.01552 11.1663C8.90232 11.275 8.83521 11.4255 8.82872 11.585C8.5988 17.718 8.73144 25.5044 11.3142 29.162C14.0177 33.0015 19.6787 36.262 21.001 36.7495C22.3232 36.2559 27.9842 32.9954 30.6878 29.162C33.2705 25.5044 33.4031 17.718 33.1732 11.585ZM21.8864 22.4459V26.3829C21.8864 26.6254 21.7931 26.8579 21.6271 27.0293C21.461 27.2008 21.2358 27.2971 21.001 27.2971C20.7661 27.2971 20.5409 27.2008 20.3749 27.0293C20.2088 26.8579 20.1155 26.6254 20.1155 26.3829V22.4459C19.3681 22.2255 18.723 21.7335 18.2992 21.0607C17.8753 20.388 17.7013 19.5797 17.8091 18.7849C17.9169 17.9901 18.2993 17.2623 18.8859 16.7356C19.4725 16.2089 20.2236 15.9189 21.001 15.9189C21.7783 15.9189 22.5295 16.2089 23.1161 16.7356C23.7026 17.2623 24.085 17.9901 24.1929 18.7849C24.3007 19.5797 24.1266 20.388 23.7028 21.0607C23.2789 21.7335 22.6339 22.2255 21.8864 22.4459ZM22.4531 19.2525C22.4531 19.549 22.3679 19.8388 22.2084 20.0854C22.0488 20.3319 21.822 20.5241 21.5567 20.6376C21.2913 20.751 20.9994 20.7807 20.7177 20.7229C20.436 20.665 20.1772 20.5223 19.9742 20.3126C19.7711 20.1029 19.6328 19.8358 19.5767 19.545C19.5207 19.2541 19.5495 18.9527 19.6594 18.6787C19.7693 18.4048 19.9554 18.1706 20.1942 18.0059C20.433 17.8412 20.7138 17.7532 21.001 17.7532C21.3859 17.754 21.7548 17.9122 22.027 18.1932C22.2992 18.4742 22.4524 18.8551 22.4531 19.2525Z" fill="white"/>
</g>
</svg>
