<svg width="22" height="22" viewBox="0 0 22 22" fill="none" xmlns="http://www.w3.org/2000/svg">
<g clip-path="url(#clip0_133_5554)">
<path d="M18.2188 5.74753C18.5338 5.9267 18.7954 6.18659 18.9767 6.50044C19.1579 6.81429 19.2523 7.17077 19.25 7.5332V14.2102C19.25 14.9518 18.8439 15.6356 18.1885 15.9959L12.001 19.91C11.6942 20.0785 11.35 20.1667 11 20.1667C10.6501 20.1667 10.3058 20.0785 9.999 19.91L3.8115 15.9959C3.49082 15.8206 3.22311 15.5624 3.03638 15.2483C2.84964 14.9342 2.75073 14.5756 2.75 14.2102V7.53228C2.75 6.7907 3.15608 6.10778 3.8115 5.74753L9.999 2.0992C10.3148 1.92506 10.6696 1.83374 11.0303 1.83374C11.3909 1.83374 11.7457 1.92506 12.0615 2.0992L18.249 5.74753H18.2188Z" fill="white" stroke="white" strokeWidth="1.5" stroke-linecap="round" stroke-linejoin="round"/>
<path d="M7 11C7 12.0609 7.42143 13.0783 8.17157 13.8284C8.92172 14.5786 9.93913 15 11 15C12.0609 15 13.0783 14.5786 13.8284 13.8284C14.5786 13.0783 15 12.0609 15 11C15 9.93913 14.5786 8.92172 13.8284 8.17157C13.0783 7.42143 12.0609 7 11 7C9.93913 7 8.92172 7.42143 8.17157 8.17157C7.42143 8.92172 7 9.93913 7 11Z" fill="white" stroke="#091619" strokeWidth="2" stroke-linecap="round" stroke-linejoin="round"/>
</g>
<defs>
<clipPath id="clip0_133_5554">
<rect width="22" height="22" fill="white"/>
</clipPath>
</defs>
</svg>

