<svg width="20" height="20" viewBox="0 0 20 20" fill="none" xmlns="http://www.w3.org/2000/svg">
<path d="M11.3365 5.86064V1.9141C11.3365 1.59377 11.5986 1.3335 11.9226 1.3335C12.1069 1.3335 12.271 1.41783 12.3788 1.54948L19.8457 9.60879C20.0533 9.83205 20.0496 10.1736 19.8457 10.3932L12.3531 18.4798C12.1345 18.7152 11.7646 18.7304 11.527 18.5138C11.4014 18.3998 11.3384 18.2438 11.3384 18.0873H11.3371V13.8211C4.44957 14.3477 1.04407 18.4471 1.03366 18.4592C0.826063 18.7043 0.457404 18.7371 0.209386 18.532C0.0550637 18.404 -0.0159736 18.2141 0.00301053 18.0297C0.221021 12.7915 2.40725 9.78169 4.93826 8.05565C7.18941 6.52011 9.70266 6.01777 11.3371 5.86003L11.3365 5.86064Z" fill="white"/>
</svg>
