<svg width="16" height="16" viewBox="0 0 16 16" fill="none" xmlns="http://www.w3.org/2000/svg">
<g id="Frame" clip-path="url(#clip0_133_8165)">
<g id="Group">
<path id="Vector" d="M10.6984 4.23683H14.4616L10.2803 0.055542V3.8187C10.2803 3.92958 10.3243 4.03598 10.4027 4.11438C10.4811 4.19277 10.5875 4.23683 10.6984 4.23683Z" fill="white"/>
<path id="Vector_2" d="M9.02632 3.8187V0.055542H3.17251C2.729 0.055542 2.30357 0.231753 1.98981 0.54535C1.67621 0.859133 1.5 1.28455 1.5 1.72806V14.2719C1.5 14.7154 1.67621 15.1409 1.98981 15.4546C2.30359 15.7682 2.72901 15.9444 3.17251 15.9444H12.7895C13.233 15.9444 13.6584 15.7682 13.9722 15.4546C14.2858 15.1408 14.462 14.7154 14.462 14.2719V5.49121H10.6988C10.2553 5.49121 9.82989 5.315 9.51612 5.00141C9.20253 4.68762 9.02632 4.2622 9.02632 3.8187ZM4.84503 7.58186H8.60819C8.90704 7.58186 9.1831 7.74127 9.33244 7.99999C9.48177 8.25871 9.48177 8.57753 9.33244 8.83624C9.1831 9.09496 8.90703 9.25437 8.60819 9.25437H4.84503C4.54618 9.25437 4.27011 9.09496 4.12078 8.83624C3.97145 8.57753 3.97145 8.2587 4.12078 7.99999C4.27011 7.74127 4.54619 7.58186 4.84503 7.58186ZM12.3713 11.7631C12.3713 11.9849 12.2832 12.1977 12.1264 12.3545C11.9696 12.5113 11.7568 12.5994 11.5351 12.5994H4.84503C4.54618 12.5994 4.27011 12.44 4.12078 12.1813C3.97145 11.9226 3.97145 11.6037 4.12078 11.345C4.27011 11.0863 4.54619 10.9269 4.84503 10.9269H11.5351C11.7568 10.9269 11.9696 11.015 12.1264 11.1718C12.2832 11.3286 12.3713 11.5414 12.3713 11.7631Z" fill="white"/>
</g>
</g>
<defs>
<clipPath id="clip0_133_8165">
<rect width="15.8889" height="15.8889" fill="white" transform="translate(0.0556641 0.055542)"/>
</clipPath>
</defs>
</svg>
