<svg xmlns="http://www.w3.org/2000/svg" width="40" height="40" viewBox="0 0 40 40" fill="none">
  <circle opacity="0.6" cx="20" cy="20" r="20" fill="#091619"/>
  <path fill-rule="evenodd" clip-rule="evenodd" d="M31 20C31 26.0751 26.0751 31 20 31C13.9249 31 9 26.0751 9 20C9 13.9249 13.9249 9 20 9C26.0751 9 31 13.9249 31 20ZM23.0833 16.2273L22.5972 16L15.6458 23.4091L23.3264 22.4091L23.2778 20.6818L20.3611 20.8182L25.9514 17.9091L23.5208 26L23.375 22.6364L14.4306 26L12 23.9545L23.3264 13L24.5903 15L23.0833 16.2273Z" fill="url(#paint0_linear_133_4626)"/>
  <defs>
    <linearGradient id="paint0_linear_133_4626" x1="12.3846" y1="10.2692" x2="28.4615" y2="31" gradientUnits="userSpaceOnUse">
      <stop stop-color="#00831D"/>
      <stop offset="0.577101" stop-color="#86CC03"/>
      <stop offset="1" stop-color="#FBF768"/>
    </linearGradient>
  </defs>
</svg>