<svg xmlns="http://www.w3.org/2000/svg" width="40" height="40" viewBox="0 0 40 40" fill="none">
  <circle opacity="0.6" cx="20" cy="20" r="20" fill="#091619"/>
  <path d="M16.5914 13C13.5722 13 11 15.2944 11 18.2743C11 20.3299 11.9471 22.0606 13.2024 23.4943C14.4533 24.923 16.0672 26.1222 17.5262 27.1259L20.0436 28.8578C20.3192 29.0474 20.6808 29.0474 20.9564 28.8578L23.4738 27.1259C24.9328 26.1222 26.5467 24.923 27.7976 23.4943C29.0529 22.0606 30 20.3299 30 18.2743C30 15.2944 27.4278 13 24.4086 13C22.8522 13 21.4827 13.7417 20.5 14.7013C19.5173 13.7417 18.1478 13 16.5914 13Z" fill="#F70D4D"/>
</svg>