<svg width="34" height="34" viewBox="0 0 34 34" fill="none" xmlns="http://www.w3.org/2000/svg">
<rect width="34" height="34" rx="10" fill="#162423"/>
<path d="M19.6296 24.2075C19.6072 24.693 19.4478 26.3077 17.5651 26.3077C15.6823 26.3077 15.179 24.4447 15.1465 23.937C15.047 22.3735 15.697 20.4632 16.5503 19.557C16.655 19.4459 16.8366 19.5102 16.8788 19.657C17 20.0794 17.2839 20.8165 17.8785 21.3295C18.7833 22.1103 19.6949 22.7809 19.6296 24.2075ZM21.8643 15.2242C20.9262 14.3357 20.0629 13.253 20.4322 10.7735C20.482 10.4389 20.209 10.1499 19.9078 10.3039C19.5811 10.4709 19.2885 10.7088 19.076 10.9067C18.9434 11.0302 18.69 10.9475 18.6535 10.7699C18.475 9.90114 18.1059 8.94512 18.9534 6.87999C19.1075 6.50456 18.8066 6.10656 18.4246 6.24376C14.8236 7.5374 9.74717 13.0457 10.0098 18.3548C10.1423 21.0337 11.3736 24.2209 14.3081 25.609C14.4133 25.6588 14.5036 25.5037 14.4193 25.4235C13.5783 24.6237 12.9831 23.4889 12.7832 22.1824C12.1006 17.7207 16.5016 13.6307 18.7117 13.857C18.8107 13.8671 18.8738 13.9569 18.8379 14.0497C18.5414 14.8143 16.9804 16.8577 20.2348 19.0117C23.7254 21.3219 22.2329 23.901 21.2539 25.0461C21.177 25.136 21.3059 25.3127 21.4076 25.2522C23.1857 24.1945 24.4543 22.427 24.7345 20.3458C25.0212 18.2143 23.4877 16.7619 21.8643 15.2242Z" fill="url(#paint0_linear_133_4373)"/>
<path d="M19.6299 24.2072C19.6075 24.6928 19.4481 26.3075 17.5653 26.3075C15.6826 26.3075 15.1792 24.4444 15.1468 23.9367C15.0473 22.3732 15.6973 20.4629 16.5506 19.5568C16.6553 19.4456 16.8369 19.51 16.879 19.6568C17.0003 20.0791 17.2842 20.8162 17.8787 21.3292C18.7836 22.1101 19.6952 22.7806 19.6299 24.2072Z" fill="url(#paint1_linear_133_4373)"/>
<defs>
<linearGradient id="paint0_linear_133_4373" x1="17.3846" y1="6" x2="17.3846" y2="26.3077" gradientUnits="userSpaceOnUse">
<stop stop-color="#FFBB00"/>
<stop offset="1" stop-color="#FF5400"/>
</linearGradient>
<linearGradient id="paint1_linear_133_4373" x1="17.3849" y1="19.3257" x2="17.3849" y2="26.3075" gradientUnits="userSpaceOnUse">
<stop stop-color="#FFBB00"/>
<stop offset="1" stop-color="#FF5400"/>
</linearGradient>
</defs>
</svg>
