<svg width="26" height="26" viewBox="0 0 26 26" fill="none" xmlns="http://www.w3.org/2000/svg">
<path d="M15.432 21.7248C15.4078 22.2508 15.2351 24 13.1955 24C11.1558 24 10.6105 21.9817 10.5754 21.4317C10.4668 19.7259 11.1818 17.639 12.1159 16.6661C12.2216 16.5559 12.4031 16.621 12.4443 16.768C12.5712 17.2206 12.878 18.04 13.535 18.6069C14.5152 19.4528 15.5028 20.1793 15.432 21.7248ZM17.853 11.9928C16.8296 11.0237 15.8885 9.84106 16.3101 7.11484C16.3618 6.78052 16.0888 6.48952 15.7844 6.63718C15.3939 6.82663 15.0445 7.11461 14.8017 7.3443C14.67 7.46884 14.4184 7.38643 14.383 7.20869C14.1912 6.24583 13.7586 5.20061 14.7307 2.87823C14.8874 2.50388 14.5864 2.10459 14.2029 2.23721C10.2977 3.58758 4.72425 9.59532 5.01061 15.3844C5.155 18.3034 6.50363 21.7795 9.72285 23.2691C9.82848 23.318 9.91735 23.1632 9.83209 23.084C8.89756 22.2155 8.23516 20.9693 8.01514 19.5309C7.2741 14.6876 12.0628 10.2486 14.4523 10.5133C14.5512 10.5242 14.6145 10.614 14.5794 10.7072C14.2716 11.5248 12.543 13.7498 16.0877 16.0961C19.9239 18.6349 18.2044 21.4737 17.146 22.6861C17.0682 22.7753 17.196 22.9516 17.2983 22.8919C19.2559 21.7503 20.6557 19.8193 20.9623 17.5412C21.2729 15.2321 19.6117 13.6587 17.853 11.9928Z" fill="#586769"/>
</svg>
