<svg width="31" height="31" viewBox="0 0 31 31" fill="none" xmlns="http://www.w3.org/2000/svg">
<rect width="30.3456" height="30.3456" rx="10" fill="white"/>
<g clip-path="url(#clip0_1259_10020)">
<path fill-rule="evenodd" clip-rule="evenodd" d="M15.1726 5.90039C20.2935 5.90039 24.4449 10.0518 24.4449 15.1726C24.4449 20.2935 20.2935 24.4449 15.1726 24.4449C10.0518 24.4449 5.90039 20.2935 5.90039 15.1726C5.90039 10.0518 10.0518 5.90039 15.1726 5.90039ZM12.0923 11.3958V17.2802H14.0534V18.3955C14.0837 18.3667 14.1008 18.3512 14.1171 18.3349C14.4477 18.005 14.7793 17.6759 15.1081 17.344C15.155 17.2967 15.2018 17.2775 15.2684 17.2777C15.9537 17.2799 16.6391 17.2804 17.3245 17.2764C17.3748 17.2761 17.4374 17.2501 17.4732 17.2147C17.9005 16.7933 18.323 16.367 18.7492 15.9446C18.797 15.8972 18.8143 15.85 18.8142 15.7841C18.8126 14.3553 18.813 12.9267 18.813 11.4979V11.3957H12.0923L12.0923 11.3958ZM17.398 15.5813H16.5841V13.0908H17.398V15.5813ZM15.1684 13.091V15.5781H14.3396V13.091H15.1684ZM12.9426 19.773V18.671H10.7106C10.7084 18.6249 10.7052 18.5891 10.7052 18.5534C10.7049 16.4801 10.7049 14.4068 10.7062 12.3334C10.7062 12.2735 10.7169 12.2111 10.7356 12.1541C10.9001 11.6536 11.0689 11.1545 11.2325 10.6537C11.2537 10.5888 11.2804 10.5656 11.3496 10.5649H11.3529C14.0844 10.567 16.8158 10.5668 19.5472 10.5668C19.574 10.5667 19.6008 10.5668 19.6388 10.5668V10.6824C19.6388 12.4693 19.6384 14.2561 19.6404 16.043V16.0465C19.6398 16.1192 19.6177 16.1699 19.566 16.2214C18.7735 17.0107 17.9826 17.8016 17.1933 18.5941C17.141 18.6467 17.0896 18.6686 17.015 18.6681C16.5342 18.6648 16.0534 18.6686 15.5726 18.6644C15.4805 18.6636 15.4146 18.6877 15.3491 18.7547C15.0319 19.0788 14.7101 19.3984 14.3874 19.7171C14.3567 19.7474 14.3085 19.7774 14.2681 19.7778C14.0667 19.7797 13.8653 19.7804 13.6639 19.7805H13.543C13.355 19.7804 13.1671 19.78 12.9791 19.7798C12.9696 19.7798 12.9601 19.7764 12.9427 19.773L12.9426 19.773Z" fill="#6441A5"/>
</g>
<defs>
<clipPath id="clip0_1259_10020">
<rect width="18.5445" height="18.5445" fill="white" transform="translate(5.90039 5.90039)"/>
</clipPath>
</defs>
</svg>
