<svg xmlns="http://www.w3.org/2000/svg" width="20" height="20" viewBox="0 0 20 20" fill="none">
  <g clip-path="url(#clip0_133_5930)">
    <path fill-rule="evenodd" clip-rule="evenodd" d="M10.1726 0.900482C15.2935 0.900482 19.4449 5.05185 19.4449 10.1727C19.4449 15.2936 15.2935 19.445 10.1726 19.445C5.05175 19.445 0.900391 15.2936 0.900391 10.1727C0.900391 5.05185 5.05175 0.900482 10.1726 0.900482ZM7.09228 6.39589V12.2803H9.05341V13.3956C9.08373 13.3668 9.10075 13.3513 9.11705 13.335C9.44774 13.0051 9.77931 12.676 10.1081 12.3441C10.155 12.2968 10.2018 12.2776 10.2684 12.2778C10.9537 12.28 11.6391 12.2805 12.3245 12.2765C12.3748 12.2762 12.4374 12.2502 12.4732 12.2148C12.9005 11.7934 13.323 11.3671 13.7492 10.9446C13.797 10.8973 13.8143 10.8501 13.8142 10.7841C13.8126 9.35542 13.813 7.92676 13.813 6.49798V6.39584H7.09233L7.09228 6.39589ZM12.398 10.5814H11.5841V8.09088H12.398V10.5814ZM10.1684 8.09104V10.5782H9.33964V8.09104H10.1684ZM7.94263 14.7731V13.6711H5.71062C5.7084 13.625 5.70517 13.5892 5.70517 13.5535C5.70495 11.4802 5.70495 9.40688 5.70617 7.33354C5.70623 7.27357 5.71685 7.21114 5.7356 7.15418C5.90005 6.6537 6.0689 6.15456 6.23246 5.6538C6.25366 5.58893 6.28036 5.56568 6.34957 5.56501H6.35291C9.0844 5.56712 11.8158 5.56684 14.5472 5.56684C14.574 5.56679 14.6008 5.56684 14.6388 5.56684V5.68251C14.6388 7.4694 14.6384 9.25623 14.6404 11.0431V11.0466C14.6398 11.1193 14.6177 11.17 14.566 11.2215C13.7735 12.0107 12.9826 12.8017 12.1933 13.5942C12.141 13.6468 12.0896 13.6687 12.015 13.6682C11.5342 13.6648 11.0534 13.6687 10.5726 13.6645C10.4805 13.6637 10.4146 13.6878 10.3491 13.7547C10.0319 14.0789 9.71011 14.3985 9.38738 14.7172C9.35672 14.7475 9.30849 14.7775 9.2681 14.7778C9.06671 14.7798 8.86531 14.7805 8.66392 14.7806H8.54303C8.35504 14.7805 8.16706 14.7801 7.97907 14.7798C7.96961 14.7798 7.9601 14.7765 7.94269 14.7731L7.94263 14.7731Z" fill="#6441A5"/>
  </g>
  <defs>
    <clipPath id="clip0_133_5930">
      <rect width="18.5445" height="18.5445" fill="white" transform="translate(0.900391 0.900482)"/>
    </clipPath>
  </defs>
</svg>