<svg width="24" height="24" viewBox="0 0 24 24" fill="none" xmlns="http://www.w3.org/2000/svg">
<path d="M18.4942 14.626C19.0025 14.8707 19.3977 15.1907 19.6801 15.586C19.9625 15.9813 20.1601 16.3954 20.273 16.8283C20.386 17.2613 20.4613 17.666 20.4989 18.0425C20.5366 18.4189 20.5366 18.7107 20.4989 18.9177C20.4613 19.1248 20.386 19.2754 20.273 19.3695C20.0095 19.5954 19.6895 19.793 19.313 19.9625C18.9366 20.1319 18.5225 20.2825 18.0707 20.4142C17.6189 20.546 17.1577 20.6495 16.6872 20.7248L15.3036 20.9507C14.2495 21.0825 13.1389 21.1577 11.9719 21.1766C10.786 21.1577 9.66598 21.0825 8.61186 20.9507C8.1601 20.8942 7.69892 20.8189 7.22833 20.7248C6.75774 20.6307 6.30598 20.5272 5.87304 20.4142C5.4401 20.3013 5.02598 20.1507 4.63069 19.9625C4.23539 19.7742 3.90598 19.5766 3.64245 19.3695C3.52951 19.2754 3.45892 19.1295 3.43069 18.9319C3.40245 18.7342 3.39774 18.4377 3.41657 18.0425C3.43539 17.6472 3.51069 17.2425 3.64245 16.8283C3.77421 16.4142 3.97186 16.0001 4.23539 15.586C4.49892 15.1719 4.89421 14.8519 5.42127 14.626L7.17186 13.8354C7.71774 13.5907 8.20716 13.3272 8.6401 13.0448C9.07304 12.7625 9.40245 12.433 9.62833 12.0566C9.85421 11.6801 9.97657 11.2283 9.99539 10.7013V10.5319C9.67539 10.2683 9.4401 9.95775 9.28951 9.6001L8.6401 8.0754C8.30127 7.69893 8.04716 7.35069 7.87774 7.03069C7.72716 6.76716 7.65186 6.52246 7.65186 6.29657C7.65186 6.07069 7.81186 5.95775 8.13186 5.95775C8.01892 5.24246 7.99068 4.60246 8.04716 4.03775C8.0848 3.56716 8.19774 3.13422 8.38598 2.73893C8.57421 2.34363 8.91304 2.14599 9.40245 2.14599C9.49657 1.78834 9.65657 1.46834 9.88245 1.18599C10.0895 0.94128 10.3813 0.715398 10.7577 0.508339C11.1342 0.30128 11.633 0.207162 12.2542 0.225986C12.8189 0.225986 13.2801 0.348339 13.6377 0.593045C13.9954 0.83775 14.306 1.1201 14.5695 1.4401C14.833 1.7601 15.0495 2.07069 15.2189 2.37187C15.3883 2.67304 15.5766 2.88952 15.7836 3.02128C15.8589 3.05893 15.9248 3.10599 15.9813 3.16246C16.0377 3.21893 16.0377 3.29422 15.9813 3.38834C15.906 3.65187 15.8307 4.03775 15.7554 4.54599C15.6801 5.05422 15.6895 5.52481 15.7836 5.95775C16.1224 5.97657 16.2824 6.08952 16.2636 6.29657C16.2448 6.50363 16.1507 6.74834 15.9813 7.03069C15.793 7.35069 15.5295 7.69893 15.1907 8.0754C15.0589 8.41422 14.9554 8.70599 14.8801 8.95069C14.8048 9.1954 14.7201 9.42128 14.626 9.62834C14.5319 9.8354 14.4377 9.9954 14.3436 10.1083C14.2495 10.2213 14.1083 10.3625 13.9201 10.5319V10.7013C13.9201 11.2472 14.0424 11.6989 14.2872 12.0566C14.5319 12.4142 14.8707 12.7436 15.3036 13.0448C15.7366 13.346 16.2166 13.6095 16.7436 13.8354C17.2707 14.0613 17.8542 14.3248 18.4942 14.626Z" fill="white"/>
</svg>
