<svg width="42" height="42" viewBox="0 0 42 42" fill="none" xmlns="http://www.w3.org/2000/svg">
<g id="Group 48098049">
<g id="Group 48098051">
<path id="Vector" d="M21.1753 15.2714C20.0075 15.2714 18.8658 15.6177 17.8948 16.2665C16.9237 16.9153 16.1669 17.8375 15.72 18.9165C15.2731 19.9955 15.1561 21.1827 15.384 22.3281C15.6118 23.4736 16.1742 24.5257 17 25.3515C17.8258 26.1773 18.8779 26.7397 20.0233 26.9675C21.1688 27.1954 22.356 27.0784 23.435 26.6315C24.514 26.1846 25.4362 25.4277 26.085 24.4567C26.7338 23.4857 27.0801 22.344 27.0801 21.1762C27.077 19.6111 26.4539 18.111 25.3472 17.0043C24.2405 15.8976 22.7404 15.2745 21.1753 15.2714ZM24.992 20.4402L21.6545 23.7777C21.4965 23.94 21.3075 24.069 21.0988 24.1572C20.8901 24.2454 20.6659 24.2909 20.4394 24.2912C20.2153 24.2908 19.9937 24.2452 19.7878 24.1569C19.5819 24.0687 19.396 23.9397 19.2413 23.7777L17.9063 22.4427C17.7446 22.2866 17.6158 22.0997 17.5272 21.8932C17.4387 21.6866 17.3923 21.4644 17.3907 21.2397C17.3891 21.0149 17.4323 20.7921 17.5179 20.5843C17.6035 20.3765 17.7297 20.1879 17.8892 20.0294C18.2123 19.7087 18.6491 19.5288 19.1044 19.5288C19.5596 19.5288 19.9964 19.7087 20.3195 20.0294L20.4394 20.1492L22.5788 18.0269C22.8988 17.7069 23.3328 17.5271 23.7854 17.5271C24.238 17.5271 24.672 17.7069 24.992 18.0269C25.3121 18.347 25.4919 18.781 25.4919 19.2336C25.4919 19.6861 25.3121 20.1202 24.992 20.4402Z" fill="white"/>
<path id="Vector_2" d="M35.0048 17.1873C34.6599 16.7642 34.3615 16.3051 34.1148 15.8181C33.9314 15.2687 33.8108 14.7003 33.7554 14.1237C33.6841 12.6675 33.1301 11.2765 32.1808 10.17C31.0743 9.22072 29.6833 8.66673 28.2271 8.59541C27.6506 8.53999 27.0821 8.41941 26.5327 8.23599C26.0457 7.98932 25.5866 7.69093 25.1635 7.34599C24.0658 6.336 22.6623 5.72157 21.1756 5.60022C19.688 5.71809 18.2834 6.33299 17.1877 7.34599C16.7618 7.68717 16.3032 7.9853 15.8185 8.23599C15.2686 8.41762 14.7003 8.53815 14.124 8.59541C12.662 8.6634 11.2646 9.21757 10.1533 10.17C9.2156 11.2821 8.66847 12.6709 8.59578 14.1237C8.53203 14.6989 8.41164 15.2665 8.23635 15.8181C7.98295 16.3051 7.67889 16.7641 7.32924 17.1873C6.33117 18.291 5.72376 19.6923 5.60059 21.1752C5.72028 22.659 6.32817 24.0614 7.32924 25.1631C7.67511 25.5892 7.9789 26.0477 8.23635 26.5323C8.40984 27.0844 8.5302 27.6518 8.59578 28.2268C8.66519 29.6854 9.21248 31.0807 10.1533 32.1975C11.2701 33.1383 12.6654 33.6856 14.124 33.755C14.699 33.8206 15.2664 33.941 15.8185 34.1144C16.3031 34.3719 16.7616 34.6757 17.1877 35.0216C18.2894 36.0226 19.6918 36.6305 21.1756 36.7502C22.6585 36.627 24.0598 36.0196 25.1635 35.0216C25.5867 34.6719 26.0457 34.3679 26.5327 34.1144C27.0843 33.9392 27.6519 33.8188 28.2271 33.755C29.6799 33.6823 31.0687 33.1352 32.1808 32.1975C33.1332 31.0862 33.6874 29.6888 33.7554 28.2268C33.8127 27.6505 33.9332 27.0822 34.1148 26.5323C34.3655 26.0476 34.6636 25.589 35.0048 25.1631C36.0178 24.0674 36.6327 22.6628 36.7506 21.1752C36.6292 19.6885 36.0148 18.285 35.0048 17.1873ZM21.1756 30.5031C19.3307 30.5031 17.5273 29.956 15.9933 28.9311C14.4593 27.9061 13.2637 26.4493 12.5577 24.7448C11.8517 23.0404 11.667 21.1649 12.0269 19.3554C12.3869 17.546 13.2752 15.8839 14.5798 14.5794C15.8843 13.2749 17.5464 12.3865 19.3558 12.0266C21.1652 11.6666 23.0408 11.8514 24.7452 12.5574C26.4497 13.2634 27.9065 14.459 28.9314 15.9929C29.9564 17.5269 30.5035 19.3303 30.5035 21.1752C30.4977 23.6474 29.5131 26.0166 27.765 27.7646C26.0169 29.5127 23.6477 30.4973 21.1756 30.5031Z" fill="white"/>
</g>
</g>
</svg>
