<svg width="42" height="42" viewBox="0 0 42 42" fill="none" xmlns="http://www.w3.org/2000/svg">
<rect width="42" height="42" rx="10" fill="#1C2C2E"/>
<path d="M20.8975 12.875C23.5214 12.875 25.3533 14.6831 25.3533 17.2743V24.7257C25.3533 27.3169 23.5214 29.125 20.8975 29.125H14.6228C11.9989 29.125 10.167 27.3169 10.167 24.7257V17.2743C10.167 14.6831 11.9989 12.875 14.6228 12.875H20.8975ZM29.6215 15.4522C30.0971 15.2103 30.655 15.2356 31.1089 15.5215C31.5628 15.8064 31.8337 16.3013 31.8337 16.8424V25.1582C31.8337 25.7005 31.5628 26.1943 31.1089 26.4791C30.8608 26.6342 30.5835 26.7134 30.304 26.7134C30.0711 26.7134 29.8381 26.6584 29.6204 26.5473L28.016 25.7379C27.4223 25.4365 27.0539 24.8316 27.0539 24.1596V17.84C27.0539 17.1669 27.4223 16.562 28.016 16.2628L29.6215 15.4522Z" fill="url(#paint0_linear_133_4182)"/>
<path d="M29.6212 15.452C30.0968 15.2101 30.6547 15.2354 31.1087 15.5213C31.5626 15.8062 31.8334 16.3011 31.8334 16.8422V25.158C31.8334 25.7002 31.5626 26.1941 31.1087 26.4789C30.8606 26.634 30.5832 26.7132 30.3037 26.7132C30.0708 26.7132 29.8379 26.6582 29.6202 26.5471L28.0157 25.7376C27.422 25.4363 27.0537 24.8314 27.0537 24.1594V17.8398C27.0537 17.1667 27.422 16.5618 28.0157 16.2626L29.6212 15.452Z" fill="url(#paint1_linear_133_4182)"/>
<defs>
<linearGradient id="paint0_linear_133_4182" x1="10.8464" y1="26.7386" x2="28.5574" y2="13.6557" gradientUnits="userSpaceOnUse">
<stop stop-color="#C8EB49"/>
<stop offset="1" stop-color="#49DE4D"/>
</linearGradient>
<linearGradient id="paint1_linear_133_4182" x1="27.2036" y1="25.0352" x2="32.9348" y2="23.707" gradientUnits="userSpaceOnUse">
<stop stop-color="#C8EB49"/>
<stop offset="1" stop-color="#49DE4D"/>
</linearGradient>
</defs>
</svg>


