<svg width="42" height="42" viewBox="0 0 42 42" fill="none" xmlns="http://www.w3.org/2000/svg">
<rect y="6.10352e-05" width="42" height="42" rx="10" fill="#1C2C2E"/>
<path d="M20.8973 12.8751C23.5211 12.8751 25.3531 14.6832 25.3531 17.2744V24.7257C25.3531 27.3169 23.5211 29.1251 20.8973 29.1251H14.6225C11.9987 29.1251 10.1667 27.3169 10.1667 24.7257V17.2744C10.1667 14.6832 11.9987 12.8751 14.6225 12.8751H20.8973ZM29.6212 15.4523C30.0968 15.2103 30.6547 15.2356 31.1087 15.5216C31.5626 15.8064 31.8334 16.3014 31.8334 16.8425V25.1583C31.8334 25.7005 31.5626 26.1943 31.1087 26.4792C30.8606 26.6343 30.5832 26.7135 30.3037 26.7135C30.0708 26.7135 29.8379 26.6585 29.6201 26.5474L28.0157 25.7379C27.422 25.4366 27.0537 24.8317 27.0537 24.1597V17.84C27.0537 17.1669 27.422 16.562 28.0157 16.2629L29.6212 15.4523Z" fill="url(#paint0_linear_200_16211)"/>
<path d="M29.6212 15.4523C30.0968 15.2103 30.6547 15.2356 31.1087 15.5216C31.5626 15.8064 31.8334 16.3014 31.8334 16.8425V25.1583C31.8334 25.7005 31.5626 26.1943 31.1087 26.4792C30.8606 26.6343 30.5832 26.7135 30.3037 26.7135C30.0708 26.7135 29.8379 26.6585 29.6202 26.5474L28.0157 25.7379C27.422 25.4366 27.0537 24.8317 27.0537 24.1597V17.84C27.0537 17.1669 27.422 16.562 28.0157 16.2629L29.6212 15.4523Z" fill="url(#paint1_linear_200_16211)"/>
<defs>
<linearGradient id="paint0_linear_200_16211" x1="21.0001" y1="12.8751" x2="21.0001" y2="29.1251" gradientUnits="userSpaceOnUse">
<stop stop-color="#B337FF"/>
<stop offset="1" stop-color="#C972FF"/>
</linearGradient>
<linearGradient id="paint1_linear_200_16211" x1="29.4436" y1="15.2874" x2="29.4436" y2="26.7135" gradientUnits="userSpaceOnUse">
<stop stop-color="#62C860"/>
<stop offset="1" stop-color="#37C535"/>
</linearGradient>
</defs>
</svg>

