<svg xmlns="http://www.w3.org/2000/svg" width="18" height="18" viewBox="0 0 18 18" fill="none">
  <g clip-path="url(#clip0_133_5938)">
    <path d="M8.62261 7.50354C11.1661 9.43504 15.4753 14.1798 14.172 15.5235C12.6796 16.8252 10.7457 17.6021 8.62261 17.6021C6.49957 17.6021 4.54452 16.8252 3.0732 15.5235C1.74887 14.1798 6.07914 9.43504 8.6016 7.52453C8.6016 7.50354 8.62261 7.50354 8.62261 7.50354ZM13.0159 1.9819C11.7336 1.20505 10.3252 0.743164 8.62261 0.743164C6.91988 0.743164 5.5116 1.20505 4.22929 1.9819C4.20828 1.9819 4.20828 2.00289 4.20828 2.02388C4.20828 2.04486 4.22929 2.04486 4.25031 2.04486C5.88988 1.68792 8.37031 3.09457 8.6016 3.24162H8.64363C8.8748 3.0947 11.3554 1.68805 12.9949 2.04486C13.0159 2.04486 13.037 2.04486 13.037 2.02388C13.037 2.00289 13.037 1.9819 13.0159 1.9819ZM2.71582 3.15754C2.6948 3.15754 2.6948 3.17853 2.67379 3.17853C1.1393 4.71111 0.193359 6.83163 0.193359 9.16193C0.193359 11.0724 0.845084 12.857 1.91711 14.2637C1.91711 14.2846 1.93813 14.2846 1.95914 14.2846C1.98016 14.2846 1.98016 14.2637 1.95914 14.2427C1.30742 12.2482 4.6077 7.44044 6.31043 5.42486L6.33145 5.40387C6.33145 5.38288 6.33145 5.38288 6.31043 5.38288C3.72493 2.82159 2.86305 3.09444 2.71595 3.15741L2.71582 3.15754ZM10.9349 5.36202L10.9139 5.38301C10.9139 5.38301 10.9139 5.404 10.9349 5.404C12.6377 7.41945 15.9168 12.2273 15.2862 14.2218V14.2638C15.3072 14.2638 15.3282 14.2638 15.3282 14.2428C16.4003 12.8361 17.052 11.0516 17.052 9.14106C17.052 6.81065 16.1061 4.69024 14.5506 3.15766C14.5295 3.13667 14.5295 3.13667 14.5085 3.13667C14.3824 3.0947 13.5206 2.82171 10.935 5.36215L10.9349 5.36202Z" fill="#107B10"/>
  </g>
  <defs>
    <clipPath id="clip0_133_5938">
      <rect width="16.8586" height="16.8586" fill="white" transform="translate(0.193359 0.743408)"/>
    </clipPath>
  </defs>
</svg>