<svg width="31" height="31" viewBox="0 0 31 31" fill="none" xmlns="http://www.w3.org/2000/svg">
<rect width="30.3456" height="30.3456" rx="10" fill="white"/>
<g clip-path="url(#clip0_1259_9999)">
<path d="M15.1724 13.5035C17.7159 15.435 22.0252 20.1798 20.7218 21.5235C19.2294 22.8252 17.2955 23.6021 15.1724 23.6021C13.0494 23.6021 11.0943 22.8252 9.62301 21.5235C8.29867 20.1798 12.6289 15.435 15.1514 13.5245C15.1514 13.5035 15.1724 13.5035 15.1724 13.5035ZM19.5657 7.9819C18.2834 7.20505 16.875 6.74316 15.1724 6.74316C13.4697 6.74316 12.0614 7.20505 10.7791 7.9819C10.7581 7.9819 10.7581 8.00289 10.7581 8.02388C10.7581 8.04486 10.7791 8.04486 10.8001 8.04486C12.4397 7.68792 14.9201 9.09457 15.1514 9.24162H15.1934C15.4246 9.0947 17.9052 7.68805 19.5447 8.04486C19.5657 8.04486 19.5868 8.04486 19.5868 8.02388C19.5868 8.00289 19.5868 7.9819 19.5657 7.9819ZM9.26562 9.15754C9.24461 9.15754 9.24461 9.17853 9.22359 9.17853C7.6891 10.7111 6.74316 12.8316 6.74316 15.1619C6.74316 17.0724 7.39489 18.857 8.46692 20.2637C8.46692 20.2846 8.48793 20.2846 8.50895 20.2846C8.52996 20.2846 8.52996 20.2637 8.50895 20.2427C7.85722 18.2482 11.1575 13.4404 12.8602 11.4249L12.8813 11.4039C12.8813 11.3829 12.8813 11.3829 12.8602 11.3829C10.2747 8.82159 9.41286 9.09444 9.26575 9.15741L9.26562 9.15754ZM17.4847 11.362L17.4637 11.383C17.4637 11.383 17.4637 11.404 17.4847 11.404C19.1875 13.4195 22.4666 18.2273 21.836 20.2218V20.2638C21.857 20.2638 21.878 20.2638 21.878 20.2428C22.9501 18.8361 23.6018 17.0516 23.6018 15.1411C23.6018 12.8106 22.6559 10.6902 21.1004 9.15766C21.0793 9.13667 21.0793 9.13667 21.0583 9.13667C20.9322 9.0947 20.0704 8.82171 17.4849 11.3621L17.4847 11.362Z" fill="#107B10"/>
</g>
<defs>
<clipPath id="clip0_1259_9999">
<rect width="16.8586" height="16.8586" fill="white" transform="translate(6.74316 6.74341)"/>
</clipPath>
</defs>
</svg>
